<svg xmlns="http://www.w3.org/2000/svg" xmlns:xlink="http://www.w3.org/1999/xlink" width="210" height="176" viewBox="0 0 210 176">
  <defs>
    <clipPath id="clip-path">
      <rect id="사각형_4137" data-name="사각형 4137" width="210" height="176" transform="translate(90 284)" fill="#fff" stroke="#707070" stroke-width="1"/>
    </clipPath>
  </defs>
  <g id="logo" transform="translate(-90 -284)" clip-path="url(#clip-path)">
    <g id="그룹_19249" data-name="그룹 19249" transform="translate(90 284.001)">
      <path id="패스_4569" data-name="패스 4569" d="M679.51,353.4v0l19.188.331L685.051,335.7Z" transform="translate(-488.666 -241.417)" fill="#ffbb84"/>
      <path id="패스_4570" data-name="패스 4570" d="M701.473,271.95l11.133,17.744-13.366.16v0Z" transform="translate(-502.855 -195.572)" fill="#ffbb84"/>
      <path id="패스_4571" data-name="패스 4571" d="M673.311,398.73,685.837,411.8l-14.947.635Z" transform="translate(-482.468 -286.745)" fill="#f0a96b"/>
      <path id="패스_4572" data-name="패스 4572" d="M683.9,271.94v0l-2.233,17.9L674.8,277.773Z" transform="translate(-485.279 -195.565)" fill="#f0a96b"/>
      <path id="패스_4573" data-name="패스 4573" d="M678.606,244.89l5.291,7.6-9.1,5.833Z" transform="translate(-485.279 -176.112)" fill="#ea9852"/>
      <path id="패스_4574" data-name="패스 4574" d="M661.535,304.781v0l-14.725-1.3,7.861-10.771Z" transform="translate(-465.151 -210.501)" fill="#d58241"/>
      <path id="패스_4575" data-name="패스 4575" d="M661.535,332.363l-5.541,17.7-9.184-19Z" transform="translate(-465.151 -238.08)" fill="#ea9852"/>
      <path id="패스_4576" data-name="패스 4576" d="M661.26,193.76l7.609,14.36-3.806,13.431Z" transform="translate(-475.542 -139.342)" fill="#d77f31"/>
      <path id="패스_4577" data-name="패스 4577" d="M653.995,398.72v0l-2.421,13.7-7.544-4.275Z" transform="translate(-463.151 -286.738)" fill="#f9c6a7"/>
      <path id="패스_4578" data-name="패스 4578" d="M619.051,350.06v0l-23.611-10.5,14.427-8.5Z" transform="translate(-428.208 -238.08)" fill="#fbd0be"/>
      <path id="패스_4579" data-name="패스 4579" d="M624.848,398.72l-9.965,9.428L603.5,399.939Z" transform="translate(-434.004 -286.738)" fill="#f9c6a7"/>
      <path id="패스_4580" data-name="패스 4580" d="M619.051,371.824,597.7,373.043,595.44,361.32Z" transform="translate(-428.208 -259.842)" fill="#fbd0be"/>
      <path id="패스_4581" data-name="패스 4581" d="M642.831,87.9l2.564,9.3-12.405,3.6Z" transform="translate(-455.212 -63.213)" fill="#d68346"/>
      <path id="패스_4582" data-name="패스 4582" d="M645.4,121.03l-4.466,20.427-7.94-16.829Z" transform="translate(-455.212 -87.038)" fill="#e9a26c"/>
      <path id="패스_4583" data-name="패스 4583" d="M626.741,164.642l3.8,27.791L613.26,153.27Z" transform="translate(-441.023 -110.224)" fill="#ea9852"/>
      <path id="패스_4584" data-name="패스 4584" d="M613.26,153.27l17.284,39.162-17.236-22.165Z" transform="translate(-441.023 -110.224)" fill="#ea9852"/>
      <path id="패스_4585" data-name="패스 4585" d="M597.81,213.79l17.236,22.165-23.336-.413Z" transform="translate(-425.525 -153.746)" fill="#d77f31"/>
      <path id="패스_4586" data-name="패스 4586" d="M615.046,291.653l-7.861,10.771L591.71,291.24Z" transform="translate(-425.525 -209.444)" fill="#c76d2f"/>
      <path id="패스_4587" data-name="패스 4587" d="M641.506,447.51l-6.409,10.7-5.067-3.893Z" transform="translate(-453.083 -321.825)" fill="#f9c6a7"/>
      <path id="패스_4588" data-name="패스 4588" d="M641.506,436.565l-11.476,6.808,3.932-11.082Z" transform="translate(-453.083 -310.88)" fill="#f9c6a7"/>
      <path id="패스_4589" data-name="패스 4589" d="M625.719,26.94l.91,17.121-16.169-7.2Z" transform="translate(-439.01 -19.374)" fill="#d68346"/>
      <path id="패스_4590" data-name="패스 4590" d="M623.45,87.9l-9.841,12.9L606.04,90.5Z" transform="translate(-435.831 -63.213)" fill="#db945c"/>
      <path id="패스_4591" data-name="패스 4591" d="M623.45,69.475l-17.41,2.6,1.241-9.8Z" transform="translate(-435.831 -44.789)" fill="#db945c"/>
      <path id="패스_4592" data-name="패스 4592" d="M616.788,0,610.46,17.491l15.259-9.925Z" transform="translate(-439.009 0)" fill="#dc813b"/>
      <path id="패스_4593" data-name="패스 4593" d="M618.8,133.84l7.94,16.829L613.26,139.3Z" transform="translate(-441.023 -96.251)" fill="#e9a26c"/>
      <path id="패스_4594" data-name="패스 4594" d="M635.1,475.643l-4.5,5.575-.562-9.468Z" transform="translate(-453.083 -339.257)" fill="#f9c6a7"/>
      <path id="패스_4595" data-name="패스 4595" d="M607.185,302.424l-14.427,8.5L591.71,291.24Z" transform="translate(-425.525 -209.444)" fill="#fbd0be"/>
      <path id="패스_4596" data-name="패스 4596" d="M606.4,432.29l-3.932,11.082-10.762-6.808Z" transform="translate(-425.526 -310.88)" fill="#f9c6a7"/>
      <path id="패스_4597" data-name="패스 4597" d="M606.4,411.269l-14.694,4.275,3.311-12.484Z" transform="translate(-425.526 -289.859)" fill="#f9c6a7"/>
      <path id="패스_4598" data-name="패스 4598" d="M597.464,0,583.59,1.488l7.547,16Z" transform="translate(-419.686 0)" fill="#e9a26c"/>
      <path id="패스_4599" data-name="패스 4599" d="M606.04,97.17l7.569,10.3-5.541,5.457Z" transform="translate(-435.831 -69.88)" fill="#9d4a24"/>
      <path id="패스_4600" data-name="패스 4600" d="M611.318,471.75l.562,9.468-7.87-4.407Z" transform="translate(-434.371 -339.257)" fill="#f9c6a7"/>
      <path id="패스_4601" data-name="패스 4601" d="M611.872,494.177l-5.538,6.7L604,489.77h0Z" transform="translate(-434.364 -352.216)" fill="#f9c6a7"/>
      <path id="패스_4602" data-name="패스 4602" d="M602.472,454.318l-7.308,5.061h0L591.71,447.51Z" transform="translate(-425.526 -321.825)" fill="#f9c6a7"/>
      <path id="패스_4603" data-name="패스 4603" d="M577.784,153.27l.048,17-13.9-10.049Z" transform="translate(-405.548 -110.224)" fill="#ea9852"/>
      <path id="패스_4604" data-name="패스 4604" d="M561.206,213.79l-6.1,21.752-14.3-19v0Z" transform="translate(-388.921 -153.746)" fill="#d77f31"/>
      <path id="패스_4605" data-name="패스 4605" d="M561.206,188.059l-20.4,2.75,6.493-12.8Z" transform="translate(-388.921 -128.015)" fill="#d77f31"/>
      <path id="패스_4606" data-name="패스 4606" d="M568.558,97.17l2.028,15.756L553.92,101.265Z" transform="translate(-398.349 -69.88)" fill="#da8746"/>
      <path id="패스_4607" data-name="패스 4607" d="M570.586,123.411l-13.855,6.948L553.92,111.75Z" transform="translate(-398.349 -80.365)" fill="#ea9852"/>
      <path id="패스_4608" data-name="패스 4608" d="M565.763,489.77l2.334,11.105-17.267-9.468Z" transform="translate(-396.127 -352.216)" fill="#f9c6a7"/>
      <path id="패스_4609" data-name="패스 4609" d="M573.8,529.31l-8.066,6.87-6.974-4.654Z" transform="translate(-401.83 -380.651)" fill="#f9c6a7"/>
      <path id="패스_4610" data-name="패스 4610" d="M568.1,505.068l-15.04,2.216h0L550.83,495.6Z" transform="translate(-396.127 -356.409)" fill="#f9c6a7"/>
      <path id="패스_4611" data-name="패스 4611" d="M564.159,5.3l7.547,16L556.57,25.676Z" transform="translate(-400.255 -3.812)" fill="#f0ab7f"/>
      <path id="패스_4612" data-name="패스 4612" d="M571.705,62.28l-1.241,9.8L556.57,66.653Z" transform="translate(-400.255 -44.789)" fill="#da8746"/>
      <path id="패스_4613" data-name="패스 4613" d="M568.558,83.276,553.92,87.371l.744-9.521Z" transform="translate(-398.349 -55.986)" fill="#db945c"/>
      <path id="패스_4614" data-name="패스 4614" d="M562.311,447.51l3.452,11.869-14.933,1.637Z" transform="translate(-396.127 -321.825)" fill="#f9c6a7"/>
      <path id="패스_4615" data-name="패스 4615" d="M565.9,361.32l2.264,11.723-13.8-5.314Z" transform="translate(-398.666 -259.842)" fill="#fbd0be"/>
      <path id="패스_4616" data-name="패스 4616" d="M592.382,403.06l-3.311,12.484-1.031-11.223Z" transform="translate(-422.886 -289.859)" fill="#f9c6a7"/>
      <path id="패스_4617" data-name="패스 4617" d="M568.161,389.454l-4.342,1.261-9.459-6.575Z" transform="translate(-398.666 -276.253)" fill="#fbd0be"/>
      <path id="패스_4618" data-name="패스 4618" d="M571.732,291.24l1.048,19.682-8.85-12.9Z" transform="translate(-405.548 -209.444)" fill="#fbd0be"/>
      <path id="패스_4619" data-name="패스 4619" d="M541.723,315.38l8.85,12.9L533.05,323.32Z" transform="translate(-383.34 -226.804)" fill="#fbd0be"/>
      <path id="패스_4620" data-name="패스 4620" d="M550.572,348.613l-11.537,6.409L533.05,343.65Z" transform="translate(-383.34 -247.135)" fill="#fbd0be"/>
      <path id="패스_4621" data-name="패스 4621" d="M540.81,223.59l14.3,19-12.31-2.033Z" transform="translate(-388.921 -160.794)" fill="#d77f31"/>
      <path id="패스_4622" data-name="패스 4622" d="M567.329,407.55l1.031,11.223-9.119-2.837Z" transform="translate(-402.175 -293.088)" fill="#fbd0be"/>
      <path id="패스_4623" data-name="패스 4623" d="M562.311,440.247,550.83,453.753l2.362-16.343Z" transform="translate(-396.127 -314.562)" fill="#f9c6a7"/>
      <path id="패스_4624" data-name="패스 4624" d="M560.19,286.033l-7.8,6.78L547.88,284Z" transform="translate(-394.005 -204.238)" fill="#fbd0be"/>
      <path id="패스_4625" data-name="패스 4625" d="M533.529,399.086l-8.089,8.386-13.2-11.692Z" transform="translate(-368.375 -284.624)" fill="#fbd0be"/>
      <path id="패스_4626" data-name="패스 4626" d="M533.529,390.715l-21.289-3.306,11.83-3.269Z" transform="translate(-368.375 -276.253)" fill="#fbd0be"/>
      <path id="패스_4627" data-name="패스 4627" d="M562.253,5.3l-7.589,20.376-.744-15.91Z" transform="translate(-398.349 -3.812)" fill="#ffbb84"/>
      <path id="패스_4628" data-name="패스 4628" d="M544.389,541.854l-15.309,8.035,8.333-12.689h0Z" transform="translate(-380.486 -386.325)" fill="#f9c6a7"/>
      <path id="패스_4629" data-name="패스 4629" d="M525.176,111.75l2.811,18.609L513.95,118.822v0Z" transform="translate(-369.605 -80.365)" fill="#ea9852"/>
      <path id="패스_4630" data-name="패스 4630" d="M536.718,175.572l-6.494,12.8L526.09,174.62Z" transform="translate(-378.335 -125.577)" fill="#d77f31"/>
      <path id="패스_4631" data-name="패스 4631" d="M529.88,284l4.508,8.813-11.538-5.457Z" transform="translate(-376.005 -204.238)" fill="#fbd0be"/>
      <path id="패스_4632" data-name="패스 4632" d="M527.98,148.468l-10.628-.952-3.412-10.583v0h0Z" transform="translate(-369.598 -98.473)" fill="#ea9852"/>
      <path id="패스_4633" data-name="패스 4633" d="M534.388,301.407l-8.673,7.94-2.865-13.4Z" transform="translate(-376.005 -212.831)" fill="#fbd0be"/>
      <path id="패스_4634" data-name="패스 4634" d="M510.187,437.41l-2.362,16.343L491.03,440.247Z" transform="translate(-353.122 -314.562)" fill="#f9c6a7"/>
      <path id="패스_4635" data-name="패스 4635" d="M510.187,429.363,491.03,432.2l8.28-5.979Z" transform="translate(-353.122 -306.514)" fill="#f9c6a7"/>
      <path id="패스_4636" data-name="패스 4636" d="M525.433,407.472l-10.877-3.143-2.326-8.549h0Z" transform="translate(-368.368 -284.624)" fill="#f9c6a7"/>
      <path id="패스_4637" data-name="패스 4637" d="M535.189,495.6l2.224,11.684-8.333,12.689Z" transform="translate(-380.486 -356.409)" fill="#f9c6a7"/>
      <path id="패스_4638" data-name="패스 4638" d="M532.633,21.2l.744,15.91L524.32,25.23Z" transform="translate(-377.062 -15.246)" fill="#f3954b"/>
      <path id="패스_4639" data-name="패스 4639" d="M494.195,35.55l9.058,11.88L482.43,41.319Z" transform="translate(-346.937 -25.566)" fill="#fbae6b"/>
      <path id="패스_4640" data-name="패스 4640" d="M536.4,77.85l-.744,9.521-7.134-4.095Z" transform="translate(-380.083 -55.986)" fill="#da8746"/>
      <path id="패스_4641" data-name="패스 4641" d="M503.253,62.2l-7.878,5.426L482.43,56.09Z" transform="translate(-346.937 -40.337)" fill="#f3954b"/>
      <path id="패스_4642" data-name="패스 4642" d="M508.117,343.65l5.985,11.372-15.722-4.053Z" transform="translate(-358.408 -247.135)" fill="#fbd0be"/>
      <path id="패스_4643" data-name="패스 4643" d="M514.1,373.763l-11.83,3.269h0l-3.89-7.322Z" transform="translate(-358.408 -265.875)" fill="#fbd0be"/>
      <path id="패스_4644" data-name="패스 4644" d="M525.176,101.265l-11.226,7.069,4.092-11.164Z" transform="translate(-369.605 -69.88)" fill="#ea9852"/>
      <path id="패스_4645" data-name="패스 4645" d="M507.329,495.6l-6.109,24.373-10.88-17.191Z" transform="translate(-352.626 -356.409)" fill="#f9c6a7"/>
      <path id="패스_4646" data-name="패스 4646" d="M507.329,461.016,490.34,468.2l.194-20.688Z" transform="translate(-352.626 -321.825)" fill="#f9c6a7"/>
      <path id="패스_4647" data-name="패스 4647" d="M520.559,223.583l1.986,16.966-9.895-10.13,7.909-6.839Z" transform="translate(-368.67 -160.787)" fill="#d77f31"/>
      <path id="패스_4648" data-name="패스 4648" d="M512.65,247.93l9.895,10.13-7.03,3.356Z" transform="translate(-368.67 -178.298)" fill="#d77f31"/>
      <path id="패스_4649" data-name="패스 4649" d="M511.031,174.62l4.134,13.751H505.15Z" transform="translate(-363.276 -125.577)" fill="#d77f31"/>
      <path id="패스_4650" data-name="패스 4650" d="M515.165,223.58l-7.909,6.839-2.106-6.836v0Z" transform="translate(-363.276 -160.787)" fill="#d77f31"/>
      <path id="패스_4651" data-name="패스 4651" d="M497.96,295.95l2.865,13.4-12.585-2.853Z" transform="translate(-351.116 -212.831)" fill="#fbd0be"/>
      <path id="패스_4652" data-name="패스 4652" d="M500.825,336.344l-9.737,7.319L488.24,333.49Z" transform="translate(-351.116 -239.828)" fill="#fbd0be"/>
      <path id="패스_4653" data-name="패스 4653" d="M480.768,521.17l10.88,17.191L477.03,532.6Z" transform="translate(-343.054 -374.797)" fill="#f9c6a7"/>
      <path id="패스_4654" data-name="패스 4654" d="M491.648,567.623,478.9,574.187l-1.87-12.327Z" transform="translate(-343.054 -404.059)" fill="#f9c6a7"/>
      <path id="패스_4655" data-name="패스 4655" d="M486.824,94.948l-4.092,11.164,0,0L470.54,94.08Z" transform="translate(-338.387 -67.657)" fill="#ea9852"/>
      <path id="패스_4656" data-name="패스 4656" d="M486.824,67.628,470.54,66.76l3.339-10.67Z" transform="translate(-338.387 -40.337)" fill="#ffb275"/>
      <path id="패스_4657" data-name="패스 4657" d="M502.75,136.94l3.412,10.583-7.782-4.2Z" transform="translate(-358.408 -98.48)" fill="#ea9852"/>
      <path id="패스_4658" data-name="패스 4658" d="M506.162,174.62l-5.881,13.751-1.9-8.746Z" transform="translate(-358.408 -125.577)" fill="#ea9852"/>
      <path id="패스_4659" data-name="패스 4659" d="M506.162,163.876l-7.782,5v-9.2Z" transform="translate(-358.408 -114.833)" fill="#ea9852"/>
      <path id="패스_4660" data-name="패스 4660" d="M494.195,29.358,482.43,35.127l2.648-8.187Z" transform="translate(-346.937 -19.374)" fill="#f3954b"/>
      <path id="패스_4661" data-name="패스 4661" d="M509.673,247.93l2.865,13.487-4.027-6Z" transform="translate(-365.693 -178.298)" fill="#d77f31"/>
      <path id="패스_4662" data-name="패스 4662" d="M503.6,274.6l4.027,6-5.946-1.323Z" transform="translate(-360.781 -197.478)" fill="#d77f31"/>
      <path id="패스_4663" data-name="패스 4663" d="M497.96,292.563l-9.72,10.543,3.775-11.866Z" transform="translate(-351.116 -209.444)" fill="#fbd0be"/>
      <path id="패스_4664" data-name="패스 4664" d="M484,395.78l2.325,8.549-13.349-3.3v0Z" transform="translate(-340.141 -284.624)" fill="#f9c6a7"/>
      <path id="패스_4665" data-name="패스 4665" d="M486.322,417.77l-8.28,5.979-5.072-9.279h0Z" transform="translate(-340.134 -298.064)" fill="#f9c6a7"/>
      <path id="패스_4666" data-name="패스 4666" d="M513.94,136.923h0v0Z" transform="translate(-369.597 -98.466)" fill="#ea9852"/>
      <path id="패스_4667" data-name="패스 4667" d="M474.078,136.93v0l-4.37,6.387-11.2-1.8Z" transform="translate(-329.735 -98.473)" fill="#ea9852"/>
      <path id="패스_4668" data-name="패스 4668" d="M474.078,106.115,458.51,110.7l3.379-16.624Z" transform="translate(-329.735 -67.657)" fill="#ea9852"/>
      <path id="패스_4669" data-name="패스 4669" d="M494.765,223.59l2.106,6.836-6.162-.854Z" transform="translate(-352.892 -160.794)"/>
      <path id="패스_4670" data-name="패스 4670" d="M496.872,245.744l-1.163,7.49-5-8.344Z" transform="translate(-352.892 -176.112)"/>
      <path id="패스_4671" data-name="패스 4671" d="M480.114,369.71l3.89,7.322-11.024,5.246Z" transform="translate(-340.141 -265.875)" fill="#dea06c"/>
      <path id="패스_4672" data-name="패스 4672" d="M488.934,244.89l5,8.344-5.693,1.927Z" transform="translate(-351.116 -176.112)"/>
      <path id="패스_4673" data-name="패스 4673" d="M493.933,274.6l-1.918,4.673-3.775-2.747Z" transform="translate(-351.116 -197.478)" fill="#d77f31"/>
      <path id="패스_4674" data-name="패스 4674" d="M490.17,217.877v0l-4.055,5.982-1.795-8.212Z" transform="translate(-348.297 -155.084)"/>
      <path id="패스_4675" data-name="패스 4675" d="M488.269,192.44l1.9,8.746-5.85-2.227v0Z" transform="translate(-348.297 -138.393)" fill="#ea9852"/>
      <path id="패스_4676" data-name="패스 4676" d="M476.668,291.24l-3.775,11.866L466.9,292.563Z" transform="translate(-335.769 -209.444)" fill="#fbd0be"/>
      <path id="패스_4677" data-name="패스 4677" d="M476.668,284.207,466.9,285.53l5.993-4.07Z" transform="translate(-335.769 -202.411)" fill="#fbd0be"/>
      <path id="패스_4678" data-name="패스 4678" d="M480.085,159.68v9.2l-7.145-4.053Z" transform="translate(-340.113 -114.833)" fill="#ea9852"/>
      <path id="패스_4679" data-name="패스 4679" d="M482.731,192.44l-3.949,6.516-2.163-3.207Z" transform="translate(-342.759 -138.393)" fill="#ea9852"/>
      <path id="패스_4680" data-name="패스 4680" d="M484.968,333.49l2.848,10.173-4.126-2.634Z" transform="translate(-347.844 -239.828)" fill="#fbd0be"/>
      <path id="패스_4681" data-name="패스 4681" d="M480.107,362.964l-7.134,12.568h0l3.011-15.2Z" transform="translate(-340.134 -259.13)" fill="#140001"/>
      <path id="패스_4682" data-name="패스 4682" d="M469.708,155.07l-7.145,5.148-4.053-6.948Z" transform="translate(-329.735 -110.224)" fill="#ea9852"/>
      <path id="패스_4683" data-name="패스 4683" d="M480.085,182.063l-6.111,3.308-1.034-7.361Z" transform="translate(-340.113 -128.015)" fill="#ea9852"/>
      <path id="패스_4684" data-name="패스 4684" d="M453.251,414.47l5.072,9.279-12.773-3.612Z" transform="translate(-320.415 -298.064)" fill="#dea06c"/>
      <path id="패스_4685" data-name="패스 4685" d="M451.017,447.51l-.194,20.688L435.39,457.214Z" transform="translate(-313.109 -321.825)" fill="#f9c6a7"/>
      <path id="패스_4686" data-name="패스 4686" d="M451.017,438.262l-15.627,9.7,2.853-13.315Z" transform="translate(-313.109 -312.577)" fill="#f9c6a7"/>
      <path id="패스_4687" data-name="패스 4687" d="M467.586,215.65l1.795,8.212-8.33-6.993Z" transform="translate(-331.562 -155.084)"/>
      <path id="패스_4688" data-name="패스 4688" d="M478.8,244.89l-.694,10.271-3.957-3.617Z" transform="translate(-340.983 -176.112)"/>
      <path id="패스_4689" data-name="패스 4689" d="M462.872,244.89l-4.651,6.654L452,247.713Z" transform="translate(-325.054 -176.112)"/>
      <path id="패스_4690" data-name="패스 4690" d="M461.7,237.066l-10.872,2.823-.458-5.878Z" transform="translate(-323.882 -168.287)"/>
      <path id="패스_4691" data-name="패스 4691" d="M461.7,226.983l-11.33-3.056v0l3-3.935h0Z" transform="translate(-323.882 -158.205)"/>
      <path id="패스_4692" data-name="패스 4692" d="M436.476,521.17,432.738,532.6l-17.3-4.713Z" transform="translate(-298.762 -374.797)" fill="#f9c6a7"/>
      <path id="패스_4693" data-name="패스 4693" d="M436.476,493.044,415.44,499.76l5.6-17.7Z" transform="translate(-298.762 -346.672)" fill="#f9c6a7"/>
      <path id="패스_4694" data-name="패스 4694" d="M460.291,295.95l5.993,10.543-8.575,2.078Z" transform="translate(-329.16 -212.831)" fill="#fbd0be"/>
      <path id="패스_4695" data-name="패스 4695" d="M466.284,333.49l-1.278,7.538-7.3-5.46Z" transform="translate(-329.16 -239.828)" fill="#fbd0be"/>
      <path id="패스_4696" data-name="패스 4696" d="M472.893,272.2l-5.993,4.07,2.036-7.687Z" transform="translate(-335.769 -193.148)" fill="#fbd0be"/>
      <path id="패스_4697" data-name="패스 4697" d="M467.578,207.427v0l-6.536,1.219h0l4.376-4.429Z" transform="translate(-331.555 -146.864)" fill="#ea9852"/>
      <path id="패스_4698" data-name="패스 4698" d="M444.079,360.33l-3.011,15.2-12.459-14.52Z" transform="translate(-308.233 -259.13)" fill="#140001"/>
      <path id="패스_4699" data-name="패스 4699" d="M452.435,561.86l1.87,12.327-11.476-8.3Z" transform="translate(-318.459 -404.059)" fill="#f9c6a7"/>
      <path id="패스_4700" data-name="패스 4700" d="M444.079,346.35l-15.469.682,8.173-6.142Z" transform="translate(-308.233 -245.15)" fill="#fbd0be"/>
      <path id="패스_4701" data-name="패스 4701" d="M447.948,584.5l-13.958,1.649,2.483-9.948Z" transform="translate(-312.102 -414.372)" fill="#f9c6a7"/>
      <path id="패스_4702" data-name="패스 4702" d="M448.278,45.77l-3.339,10.67-10-14.7Z" transform="translate(-312.785 -30.017)" fill="#f6a667"/>
      <path id="패스_4703" data-name="패스 4703" d="M432.738,549.793l-9.605,4.027-7.693-8.74Z" transform="translate(-298.762 -391.992)" fill="#f9c6a7"/>
      <path id="패스_4704" data-name="패스 4704" d="M457.543,178.01l1.034,7.361-7.047-.972Z" transform="translate(-324.716 -128.015)" fill="#ea9852"/>
      <path id="패스_4705" data-name="패스 4705" d="M458.577,201.732l-4.376,4.429-2.671-5.4Z" transform="translate(-324.716 -144.376)" fill="#ea9852"/>
      <path id="패스_4706" data-name="패스 4706" d="M450.5,268.58l-2.036,7.687-7.2-3.356Z" transform="translate(-317.33 -193.148)" fill="#fbd0be"/>
      <path id="패스_4707" data-name="패스 4707" d="M450.5,258.771,441.26,263.1l3.016-8.162Z" transform="translate(-317.33 -183.339)" fill="#fbd0be"/>
      <rect id="사각형_4180" data-name="사각형 4180" width="0.003" height="0.003" transform="translate(132.836 116.402)" fill="#140001"/>
      <path id="패스_4708" data-name="패스 4708" d="M441.069,377.28v0l-9.319-3.2-3.14-11.318Z" transform="translate(-308.233 -260.877)" fill="#140001"/>
      <path id="패스_4709" data-name="패스 4709" d="M449.109,406.265l-7.7,5.668-1.618-8.872Z" transform="translate(-316.273 -289.859)" fill="#140001"/>
      <path id="패스_4710" data-name="패스 4710" d="M453.49,153.27l4.053,6.948-6.013,6.389Z" transform="translate(-324.716 -110.224)" fill="#ea9852"/>
      <path id="패스_4711" data-name="패스 4711" d="M425.188,41.74l10,14.7L421.38,64.009Z" transform="translate(-303.033 -30.017)" fill="#ffb275"/>
      <path id="패스_4712" data-name="패스 4712" d="M435.187,94.08,431.808,110.7l-10.428-9.055Z" transform="translate(-303.034 -67.657)" fill="#ea9852"/>
      <path id="패스_4713" data-name="패스 4713" d="M442.708,295.95l-2.581,12.622-6.867-7.659Z" transform="translate(-311.577 -212.831)" fill="#fbd0be"/>
      <path id="패스_4714" data-name="패스 4714" d="M442.708,287.356l-9.448,4.963L435.507,284Z" transform="translate(-311.577 -204.238)" fill="#fbd0be"/>
      <path id="패스_4715" data-name="패스 4715" d="M450.7,200.76l2.671,5.4-3,3.935Z" transform="translate(-323.882 -144.376)" fill="#ffb275"/>
      <path id="패스_4716" data-name="패스 4716" d="M422.2,153.27l-1.96,13.338L408.02,160.9Z" transform="translate(-293.426 -110.224)" fill="#ea9852"/>
      <path id="패스_4717" data-name="패스 4717" d="M422.2,130.085l-14.18,7.631,3.752-16.686Z" transform="translate(-293.426 -87.038)" fill="#ea9852"/>
      <path id="패스_4718" data-name="패스 4718" d="M425.062,313.62l6.867,7.659-10.069-4.19Z" transform="translate(-303.379 -225.539)" fill="#fbd0be"/>
      <path id="패스_4719" data-name="패스 4719" d="M431.929,330.16l-8.173,6.142-1.9-10.333Z" transform="translate(-303.379 -234.42)" fill="#fbd0be"/>
      <path id="패스_4720" data-name="패스 4720" d="M423.251,234.01l.458,5.878L412.66,236.3Z" transform="translate(-296.763 -168.287)" fill="#ea9852"/>
      <path id="패스_4721" data-name="패스 4721" d="M425.708,254.94l-3.016,8.162-7.252-4.145Z" transform="translate(-298.762 -183.339)" fill="#fbd0be"/>
      <path id="패스_4722" data-name="패스 4722" d="M423.7,245.756l-10.268,4.016-.784-7.6h0Z" transform="translate(-296.755 -174.156)" fill="#fbd0be"/>
      <path id="패스_4723" data-name="패스 4723" d="M417.342,200.76l-.326,9.336v0l-13.026-9.22Z" transform="translate(-290.528 -144.376)" fill="#ea9852"/>
      <path id="패스_4724" data-name="패스 4724" d="M417.342,186.147l-13.352.118,1.132-5.825Z" transform="translate(-290.528 -129.763)" fill="#ea9852"/>
      <path id="패스_4725" data-name="패스 4725" d="M417.016,210.4l-10.591,2.292h0L403.99,201.18Z" transform="translate(-290.528 -144.678)" fill="#ea9852"/>
      <path id="패스_4726" data-name="패스 4726" d="M415.4,403.06l1.618,8.872-11.144-7.611Z" transform="translate(-291.88 -289.859)" fill="#140001"/>
      <path id="패스_4727" data-name="패스 4727" d="M423.9,434.65l-2.854,13.315-5.6-7.527Z" transform="translate(-298.762 -312.577)" fill="#dea06c"/>
      <path id="패스_4728" data-name="패스 4728" d="M418.51,433.8l-8.456,5.788-2.1-6.12Z" transform="translate(-293.375 -311.728)" fill="#140001"/>
      <path id="패스_4729" data-name="패스 4729" d="M417.007,415.161l-10.56-.331-.587-7.28h0Z" transform="translate(-291.872 -293.088)" fill="#140001"/>
      <path id="패스_4730" data-name="패스 4730" d="M403.107,545.08l7.693,8.74-12.509,2.356Z" transform="translate(-286.428 -391.992)" fill="#f9c6a7"/>
      <path id="패스_4731" data-name="패스 4731" d="M410.8,576.2l-2.483,9.948-10.027-7.591Z" transform="translate(-286.428 -414.372)" fill="#f9c6a7"/>
      <path id="패스_4732" data-name="패스 4732" d="M419.772,284l-2.247,8.319-6.145-4.963Z" transform="translate(-295.842 -204.238)" fill="#fbd0be"/>
      <path id="패스_4733" data-name="패스 4733" d="M419.772,273.385l-8.392,3.356,1.14-7.5Z" transform="translate(-295.842 -193.623)" fill="#fbd0be"/>
      <path id="패스_4734" data-name="패스 4734" d="M413.494,362.76l3.14,11.318-9.044-9.24Z" transform="translate(-293.116 -260.877)" fill="#140001"/>
      <path id="패스_4735" data-name="패스 4735" d="M406.346,370.16l9.044,9.24-9.527,1.261h0v0Z" transform="translate(-291.872 -266.199)" fill="#140001"/>
      <path id="패스_4736" data-name="패스 4736" d="M403.107,455.26l5.6,7.527-10.42-6.864Z" transform="translate(-286.428 -327.398)" fill="#f9c6a7"/>
      <path id="패스_4737" data-name="패스 4737" d="M391.184,482.06l-5.6,17.7-11.661-6.78Z" transform="translate(-268.903 -346.672)" fill="#f9c6a7"/>
      <path id="패스_4738" data-name="패스 4738" d="M391.184,464.484l-17.264-4.1,6.844-2.761Z" transform="translate(-268.903 -329.096)" fill="#f9c6a7"/>
      <path id="패스_4739" data-name="패스 4739" d="M391.058,41.74l-3.808,22.269L373.92,71.9Z" transform="translate(-268.903 -30.017)" fill="#ffb275"/>
      <path id="패스_4740" data-name="패스 4740" d="M373.92,594.656l16.871-2.474-10.027-7.592Z" transform="translate(-268.903 -420.405)" fill="#f9c6a7"/>
      <path id="패스_4741" data-name="패스 4741" d="M417.525,300.913l-3.2,3.469-2.943-8.431Z" transform="translate(-295.842 -212.831)" fill="#fbd0be"/>
      <path id="패스_4742" data-name="패스 4742" d="M411.921,325.97l1.9,10.333-5.777-8.53Z" transform="translate(-293.44 -234.42)" fill="#fbd0be"/>
      <path id="패스_4743" data-name="패스 4743" d="M400.18,332.39l5.777,8.53-8.847-3.752Z" transform="translate(-285.58 -239.037)" fill="#4c2d30"/>
      <path id="패스_4744" data-name="패스 4744" d="M405.957,353.152l-5.9,2.078L397.11,349.4Z" transform="translate(-285.58 -251.27)" fill="#822c34"/>
      <path id="패스_4745" data-name="패스 4745" d="M408.978,295.95l2.943,8.431-3.881,1.8Z" transform="translate(-293.44 -212.831)" fill="#4c2d30"/>
      <path id="패스_4746" data-name="패스 4746" d="M387.249,121.03,383.5,137.716l-9.577-8.791Z" transform="translate(-268.903 -87.038)" fill="#ffb275"/>
      <path id="패스_4747" data-name="패스 4747" d="M397.879,242.17l.784,7.6-6.552-5.359Z" transform="translate(-281.984 -174.156)" fill="#fbd0be"/>
      <path id="패스_4748" data-name="패스 4748" d="M394.319,269.24l-1.14,7.5-7.108-5.336Z" transform="translate(-277.64 -193.623)"/>
      <path id="패스_4749" data-name="패스 4749" d="M401,433.47l2.1,6.12-4.817.663Z" transform="translate(-286.428 -311.728)" fill="#140001"/>
      <path id="패스_4750" data-name="패스 4750" d="M385.581,527.72l-4.817,11.1L373.92,520.94Z" transform="translate(-268.903 -374.632)" fill="#f9c6a7"/>
      <path id="패스_4751" data-name="패스 4751" d="M394.319,255.519l-8.249,2.165,1.694-7.524h0Z" transform="translate(-277.64 -179.902)"/>
      <path id="패스_4752" data-name="패스 4752" d="M382.365,201.18l2.432,11.512L373.92,210.4Z" transform="translate(-268.903 -144.678)" fill="#ad5317"/>
      <path id="패스_4753" data-name="패스 4753" d="M384.8,236.3l-5.769,2.244h0l-5.106-4.536Z" transform="translate(-268.903 -168.287)" fill="#fbd0be"/>
      <path id="패스_4754" data-name="패스 4754" d="M384.441,295.95l-.938,10.234-9.583-2.171Z" transform="translate(-268.903 -212.831)" fill="#b39098"/>
      <path id="패스_4755" data-name="패스 4755" d="M384.441,282.286,373.92,290.35l3.412-13.4Z" transform="translate(-268.903 -199.168)"/>
      <path id="패스_4756" data-name="패스 4756" d="M383.5,332.39l-3.07,4.777-6.513-2.126Z" transform="translate(-268.903 -239.037)" fill="#b39098"/>
      <path id="패스_4757" data-name="패스 4757" d="M395.14,180.44l-1.132,5.825-3.9-3.367Z" transform="translate(-280.546 -129.763)" fill="#ea9852"/>
      <path id="패스_4758" data-name="패스 4758" d="M383.5,171.81l-5.03,2.457h0l-4.544-5.828Z" transform="translate(-268.903 -121.133)" fill="#ffb275"/>
      <path id="패스_4759" data-name="패스 4759" d="M393.217,407.55l.587,7.28-5.524-2.578Z" transform="translate(-279.23 -293.088)" fill="#f17289"/>
      <path id="패스_4760" data-name="패스 4760" d="M393.8,426.868l-2.713,6.783-2.814-9.358v0h0Z" transform="translate(-279.223 -305.126)" fill="#f17289"/>
      <path id="패스_4761" data-name="패스 4761" d="M380.433,349.4l2.943,5.831-9.456-1.4Z" transform="translate(-268.903 -251.27)" fill="#822c34"/>
      <path id="패스_4762" data-name="패스 4762" d="M383.376,366.586l-.486,10.5-8.97-11.894Z" transform="translate(-268.903 -262.625)" fill="#cf6e7f"/>
      <path id="패스_4763" data-name="패스 4763" d="M382.89,407.55l-4.937,4.7h0l-4.03-3.626Z" transform="translate(-268.903 -293.088)" fill="#cf6e7f"/>
      <path id="패스_4764" data-name="패스 4764" d="M382.365,192.557l-8.445.382,4.544-3.749h0Z" transform="translate(-268.903 -136.055)" fill="#ad5317"/>
      <path id="패스_4765" data-name="패스 4765" d="M377.95,424.3l2.814,9.358-6.844.9Z" transform="translate(-268.903 -305.134)" fill="#f17289"/>
      <path id="패스_4766" data-name="패스 4766" d="M379.026,250.16l-1.694,7.524-3.412-7.524Z" transform="translate(-268.903 -179.902)"/>
      <path id="패스_4767" data-name="패스 4767" d="M349.55,538.817l6.844,10.066,6.844-10.066-6.844-17.877Z" transform="translate(-251.377 -374.632)" fill="#f9c6a7"/>
      <path id="패스_4768" data-name="패스 4768" d="M329.714,467.45l-17.264,4.1,17.264,10.92,17.264-10.92Z" transform="translate(-224.697 -336.165)" fill="#f9c6a7"/>
      <path id="패스_4769" data-name="패스 4769" d="M356.395,458.519l-6.844-.9,6.844,2.761,6.844-2.761Z" transform="translate(-251.377 -329.096)" fill="#f17289"/>
      <path id="패스_4770" data-name="패스 4770" d="M363.593,411.38l-4.033,3.907,4.033,9.979,4.03-10.257v0Z" transform="translate(-258.576 -295.842)" fill="#f17289"/>
      <path id="패스_4771" data-name="패스 4771" d="M350.943,365.19l-8.973,11.9,8.973,1.076,8.971-1.076v0Z" transform="translate(-245.926 -262.625)" fill="#c65f6f"/>
      <path id="패스_4772" data-name="패스 4772" d="M357.243,350.018l-6.513-.618,6.513,4.435,6.513-4.435Z" transform="translate(-252.226 -251.27)" fill="#822c34"/>
      <path id="패스_4773" data-name="패스 4773" d="M357.243,341.83l-6.513,2.126,6.513.618,6.513-.618Z" transform="translate(-252.226 -245.826)" fill="#4c4445"/>
      <path id="패스_4774" data-name="패스 4774" d="M349.383,324.66l-9.583,2.171,9.583,2.651,9.583-2.651Z" transform="translate(-244.366 -233.478)" fill="#b39098"/>
      <path id="패스_4775" data-name="패스 4775" d="M365.183,250.16l-3.412,7.524,3.412,13.4,3.412-13.4Z" transform="translate(-260.165 -179.902)"/>
      <path id="패스_4776" data-name="패스 4776" d="M360.839,234.01l-5.109,4.536h10.215Z" transform="translate(-255.822 -168.287)" fill="#fbd0be"/>
      <path id="패스_4777" data-name="패스 4777" d="M352.3,201.562l-8.445-.382,8.445,9.22,8.445-9.22Z" transform="translate(-247.278 -144.678)" fill="#ad5317"/>
      <path id="패스_4778" data-name="패스 4778" d="M362.277,168.44l-4.547,5.828,4.547,3.749,4.544-3.749Z" transform="translate(-257.26 -121.133)" fill="#ffb275"/>
      <path id="패스_4779" data-name="패스 4779" d="M349.4,149.14l-9.577,8.791,9.577-3.37,9.577,3.37Z" transform="translate(-244.38 -107.254)" fill="#ea9852"/>
      <path id="패스_4780" data-name="패스 4780" d="M330.031,35.55,312.89,37.288l17.141,30.164,17.138-30.164Z" transform="translate(-225.014 -25.566)" fill="#ffb275"/>
      <path id="패스_4781" data-name="패스 4781" d="M312.89,41.74,330.031,71.9,316.7,64.009Z" transform="translate(-225.013 -30.017)" fill="#ffb275"/>
      <path id="패스_4782" data-name="패스 4782" d="M349.4,168.44l-4.547,5.828-5.03-2.457Z" transform="translate(-244.38 -121.133)" fill="#ffb275"/>
      <path id="패스_4783" data-name="패스 4783" d="M337.615,201.18l8.445,9.221-10.88,2.292Z" transform="translate(-241.043 -144.678)" fill="#ad5317"/>
      <path id="패스_4784" data-name="패스 4784" d="M360.839,250.16l-3.412,7.524-1.7-7.524Z" transform="translate(-255.822 -179.902)"/>
      <path id="패스_4785" data-name="패스 4785" d="M343.568,276.95l3.412,13.4-10.521-8.063Z" transform="translate(-241.964 -199.168)"/>
      <path id="패스_4786" data-name="패스 4786" d="M349.706,365.19l-8.973,11.9-.483-10.5Z" transform="translate(-244.689 -262.625)" fill="#cf6e7f"/>
      <path id="패스_4787" data-name="패스 4787" d="M352.361,425.29l4.033,9.979-6.844-.9Z" transform="translate(-251.377 -305.846)" fill="#f17289"/>
      <path id="패스_4788" data-name="패스 4788" d="M344.061,520.94l-6.844,17.876-4.817-11.1Z" transform="translate(-239.044 -374.632)" fill="#f9c6a7"/>
      <path id="패스_4789" data-name="패스 4789" d="M313.85,592.181l16.871,2.474-6.844-10.066Z" transform="translate(-225.704 -420.405)" fill="#f9c6a7"/>
      <path id="패스_4790" data-name="패스 4790" d="M339.789,128.925l-9.577,8.791L326.46,121.03Z" transform="translate(-234.772 -87.038)" fill="#ffb275"/>
      <path id="패스_4791" data-name="패스 4791" d="M352.3,192.939l-8.445-.382,3.9-3.367Z" transform="translate(-247.278 -136.055)" fill="#ad5317"/>
      <path id="패스_4792" data-name="패스 4792" d="M346.06,234.01l-5.109,4.536L335.18,236.3Z" transform="translate(-241.043 -168.287)" fill="#fbd0be"/>
      <path id="패스_4793" data-name="패스 4793" d="M346.981,304.013l-9.583,2.171-.938-10.234Z" transform="translate(-241.964 -212.831)" fill="#b39098"/>
      <path id="패스_4794" data-name="패스 4794" d="M349.383,335.041l-6.513,2.126-3.07-4.777Z" transform="translate(-244.366 -239.037)" fill="#b39098"/>
      <path id="패스_4795" data-name="패스 4795" d="M349.706,353.835l-9.456,1.4,2.943-5.831Z" transform="translate(-244.689 -251.27)" fill="#822c34"/>
      <path id="패스_4796" data-name="패스 4796" d="M350.943,408.626l-4.033,3.907-4.94-4.982Z" transform="translate(-245.926 -293.088)" fill="#cf6e7f"/>
      <path id="패스_4797" data-name="패스 4797" d="M329.714,460.381l-17.264,4.1,10.42-6.864Z" transform="translate(-224.697 -329.096)" fill="#f9c6a7"/>
      <path id="패스_4798" data-name="패스 4798" d="M329.714,492.98l-11.661,6.78-5.6-17.7Z" transform="translate(-224.697 -346.672)" fill="#f9c6a7"/>
      <path id="패스_4799" data-name="패스 4799" d="M338.952,250.16l1.7,7.524-8.249-2.165Z" transform="translate(-239.044 -179.902)"/>
      <path id="패스_4800" data-name="패스 4800" d="M340.649,271.405l-7.109,5.336-1.14-7.5Z" transform="translate(-239.044 -193.623)"/>
      <path id="패스_4801" data-name="패스 4801" d="M340.474,407.55l4.94,4.982-5.524,2.3Z" transform="translate(-244.43 -293.088)" fill="#f17289"/>
      <path id="패스_4802" data-name="패스 4802" d="M345.414,425.29l-2.811,9.08-2.713-6.783Z" transform="translate(-244.43 -305.846)" fill="#f17289"/>
      <path id="패스_4803" data-name="패스 4803" d="M344.85,182.9l-3.9,3.367-1.132-5.825Z" transform="translate(-244.38 -129.763)" fill="#ea9852"/>
      <path id="패스_4804" data-name="패스 4804" d="M338.952,244.414l-6.552,5.359.781-7.6Z" transform="translate(-239.044 -174.156)" fill="#fbd0be"/>
      <path id="패스_4805" data-name="패스 4805" d="M325.007,332.39l3.07,4.777-8.847,3.752Z" transform="translate(-229.573 -239.037)" fill="#4c2d30"/>
      <path id="패스_4806" data-name="패스 4806" d="M328.077,349.4l-2.943,5.831-5.9-2.078Z" transform="translate(-229.573 -251.27)" fill="#822c34"/>
      <path id="패스_4807" data-name="패스 4807" d="M334.5,433.47l2.713,6.783-4.817-.663Z" transform="translate(-239.044 -311.728)" fill="#140001"/>
      <path id="패스_4808" data-name="패스 4808" d="M312.7,545.08l4.817,11.1L305.01,553.82Z" transform="translate(-219.347 -391.992)" fill="#f9c6a7"/>
      <path id="패스_4809" data-name="패스 4809" d="M322.87,455.923l-10.42,6.864,5.6-7.527Z" transform="translate(-224.697 -327.398)" fill="#f9c6a7"/>
      <path id="패스_4810" data-name="패스 4810" d="M317.519,578.556l-10.026,7.591L305.01,576.2Z" transform="translate(-219.347 -414.372)" fill="#f9c6a7"/>
      <path id="패스_4811" data-name="패스 4811" d="M308.53,180.44l1.132,5.825-13.352-.118Z" transform="translate(-213.09 -129.763)" fill="#ea9852"/>
      <path id="패스_4812" data-name="패스 4812" d="M310.489,201.18l-2.435,11.512L297.46,210.4Z" transform="translate(-213.917 -144.678)" fill="#ea9852"/>
      <path id="패스_4813" data-name="패스 4813" d="M309.662,200.878l-13.029,9.22-.323-9.338Z" transform="translate(-213.09 -144.376)" fill="#ea9852"/>
      <path id="패스_4814" data-name="패스 4814" d="M317.094,370.16l.483,10.5L308.05,379.4Z" transform="translate(-221.533 -266.199)" fill="#140001"/>
      <path id="패스_4815" data-name="패스 4815" d="M313.434,407.55l-.584,7.28-10.56.331Z" transform="translate(-217.39 -293.088)" fill="#140001"/>
      <path id="패스_4816" data-name="패스 4816" d="M313.434,404.321l-11.144,7.611,1.618-8.872Z" transform="translate(-217.39 -289.859)" fill="#140001"/>
      <path id="패스_4817" data-name="패스 4817" d="M317.094,364.838l-9.043,9.24,3.14-11.318Z" transform="translate(-221.533 -260.877)" fill="#140001"/>
      <path id="패스_4818" data-name="패스 4818" d="M312.85,433.47l-2.1,6.12L302.29,433.8Z" transform="translate(-217.391 -311.728)" fill="#140001"/>
      <path id="패스_4819" data-name="패스 4819" d="M299.758,121.03l3.752,16.686-14.18-7.631Z" transform="translate(-208.07 -87.038)" fill="#ea9852"/>
      <path id="패스_4820" data-name="패스 4820" d="M303.51,160.9l-12.22,5.707-1.96-13.338Z" transform="translate(-208.07 -110.224)" fill="#ea9852"/>
      <path id="패스_4821" data-name="패스 4821" d="M328.923,295.95l.938,10.234-3.881-1.8Z" transform="translate(-234.427 -212.831)" fill="#4c2d30"/>
      <path id="패스_4822" data-name="패스 4822" d="M325.007,327.773l-5.777,8.53,1.9-10.333Z" transform="translate(-229.573 -234.42)" fill="#fbd0be"/>
      <path id="패스_4823" data-name="패스 4823" d="M313.832,269.24l1.14,7.5-8.392-3.356Z" transform="translate(-220.476 -193.623)" fill="#fbd0be"/>
      <path id="패스_4824" data-name="패스 4824" d="M320.725,295.95l-2.943,8.431-3.2-3.469Z" transform="translate(-226.229 -212.831)" fill="#fbd0be"/>
      <path id="패스_4825" data-name="패스 4825" d="M314.972,287.356l-6.145,4.963L306.58,284Z" transform="translate(-220.476 -204.238)" fill="#fbd0be"/>
      <path id="패스_4826" data-name="패스 4826" d="M306.889,242.17l-.781,7.6-10.268-4.016Z" transform="translate(-212.752 -174.156)" fill="#fbd0be"/>
      <path id="패스_4827" data-name="패스 4827" d="M306.889,236.3l-11.049,3.587.455-5.878Z" transform="translate(-212.752 -168.287)" fill="#ea9852"/>
      <path id="패스_4828" data-name="패스 4828" d="M310.746,440.438l-5.6,7.527L302.29,434.65Z" transform="translate(-217.39 -312.577)" fill="#dea06c"/>
      <path id="패스_4829" data-name="패스 4829" d="M272.926,482.06l5.6,17.7-21.039-6.715Z" transform="translate(-185.173 -346.672)" fill="#f9c6a7"/>
      <path id="패스_4830" data-name="패스 4830" d="M288.108,545.08l-7.693,8.74-9.605-4.027Z" transform="translate(-194.752 -391.992)" fill="#f9c6a7"/>
      <path id="패스_4831" data-name="패스 4831" d="M306.108,258.956l-7.252,4.145-3.016-8.162Z" transform="translate(-212.752 -183.339)" fill="#fbd0be"/>
      <path id="패스_4832" data-name="패스 4832" d="M278.529,527.885l-17.3,4.713L257.49,521.17Z" transform="translate(-185.173 -374.797)" fill="#f9c6a7"/>
      <path id="패스_4833" data-name="패스 4833" d="M287.3,41.74l3.811,22.269L277.3,56.44Z" transform="translate(-199.419 -30.017)" fill="#ffb275"/>
      <path id="패스_4834" data-name="패스 4834" d="M291.107,101.649,280.679,110.7,277.3,94.08Z" transform="translate(-199.419 -67.657)" fill="#ea9852"/>
      <path id="패스_4835" data-name="패스 4835" d="M297,313.62l3.2,3.469-10.069,4.19Z" transform="translate(-208.646 -225.539)" fill="#fbd0be"/>
      <path id="패스_4836" data-name="패스 4836" d="M300.2,325.97,298.3,336.3l-8.173-6.142Z" transform="translate(-208.646 -234.42)" fill="#fbd0be"/>
      <path id="패스_4837" data-name="패스 4837" d="M287.322,362.76l-3.14,11.318-9.322,3.2Z" transform="translate(-197.664 -260.877)" fill="#140001"/>
      <path id="패스_4838" data-name="패스 4838" d="M279.619,361.013l-12.461,14.523L264.15,360.33Z" transform="translate(-189.962 -259.13)" fill="#140001"/>
      <path id="패스_4839" data-name="패스 4839" d="M279.619,347.032l-15.469-.682,7.3-5.46Z" transform="translate(-189.962 -245.15)" fill="#fbd0be"/>
      <path id="패스_4840" data-name="패스 4840" d="M288.141,284l2.247,8.319-9.448-4.963Z" transform="translate(-202.037 -204.238)" fill="#fbd0be"/>
      <path id="패스_4841" data-name="패스 4841" d="M290.388,300.913l-6.867,7.659L280.94,295.95Z" transform="translate(-202.037 -212.831)" fill="#fbd0be"/>
      <path id="패스_4842" data-name="패스 4842" d="M275.626,576.2l2.483,9.948L264.15,584.5Z" transform="translate(-189.962 -414.372)" fill="#f9c6a7"/>
      <path id="패스_4843" data-name="패스 4843" d="M278.745,41.74l-10,14.7L265.41,45.77Z" transform="translate(-190.868 -30.017)" fill="#f6a667"/>
      <path id="패스_4844" data-name="패스 4844" d="M269.583,434.65l2.854,13.315-15.627-9.7Z" transform="translate(-184.684 -312.577)" fill="#f9c6a7"/>
      <path id="패스_4845" data-name="패스 4845" d="M272.437,457.214,257,468.2l-.191-20.688Z" transform="translate(-184.684 -321.825)" fill="#f9c6a7"/>
      <path id="패스_4846" data-name="패스 4846" d="M284.182,403.06l-1.618,8.872-7.7-5.668Z" transform="translate(-197.664 -289.859)" fill="#140001"/>
      <path id="패스_4847" data-name="패스 4847" d="M279.9,254.94l3.016,8.162-9.24-4.331Z" transform="translate(-196.816 -183.339)" fill="#fbd0be"/>
      <path id="패스_4848" data-name="패스 4848" d="M282.92,272.911l-7.2,3.356-2.039-7.687Z" transform="translate(-196.816 -193.148)" fill="#fbd0be"/>
      <path id="패스_4849" data-name="패스 4849" d="M275.626,565.887l-11.476,8.3,1.87-12.327Z" transform="translate(-189.962 -404.059)" fill="#f9c6a7"/>
      <path id="패스_4850" data-name="패스 4850" d="M269.583,420.138l-12.773,3.612,5.069-9.279Z" transform="translate(-184.684 -298.065)" fill="#dea06c"/>
      <path id="패스_4851" data-name="패스 4851" d="M289.464,200.76l.323,9.338-3-3.938Z" transform="translate(-206.244 -144.376)" fill="#ffb275"/>
      <path id="패스_4852" data-name="패스 4852" d="M265.46,219.99l3,3.938-11.327,3.056Z" transform="translate(-184.914 -158.205)"/>
      <path id="패스_4853" data-name="패스 4853" d="M268.457,234.01,268,239.888l-10.872-2.823Z" transform="translate(-184.914 -168.287)"/>
      <path id="패스_4854" data-name="패스 4854" d="M278.953,153.27l1.96,13.338-6.013-6.389Z" transform="translate(-197.693 -110.224)" fill="#ea9852"/>
      <path id="패스_4855" data-name="패스 4855" d="M272.254,178.01l6.013,6.389-7.047.972Z" transform="translate(-195.047 -128.015)" fill="#ea9852"/>
      <path id="패스_4856" data-name="패스 4856" d="M278.267,200.76l-2.674,5.4-4.373-4.429Z" transform="translate(-195.047 -144.376)" fill="#ea9852"/>
      <path id="패스_4857" data-name="패스 4857" d="M268,247.713l-6.224,3.831-4.648-6.654Z" transform="translate(-184.914 -176.112)"/>
      <path id="패스_4858" data-name="패스 4858" d="M265.593,295.95l2.581,12.622-8.575-2.078Z" transform="translate(-186.69 -212.831)" fill="#fbd0be"/>
      <path id="패스_4859" data-name="패스 4859" d="M268.174,335.568l-7.3,5.46L259.6,333.49Z" transform="translate(-186.69 -239.828)" fill="#fbd0be"/>
      <path id="패스_4860" data-name="패스 4860" d="M246.082,94.08l3.379,16.624-15.571-4.589Z" transform="translate(-168.201 -67.657)" fill="#ea9852"/>
      <path id="패스_4861" data-name="패스 4861" d="M260.658,153.27l-4.053,6.948-7.145-5.148Z" transform="translate(-179.398 -110.224)" fill="#ea9852"/>
      <path id="패스_4862" data-name="패스 4862" d="M249.461,141.519l-11.2,1.8-4.373-6.389Z" transform="translate(-168.201 -98.473)" fill="#ea9852"/>
      <path id="패스_4863" data-name="패스 4863" d="M265.675,204.22l4.373,4.429-6.538-1.219Z" transform="translate(-189.502 -146.864)" fill="#ea9852"/>
      <path id="패스_4864" data-name="패스 4864" d="M265.46,216.869l-8.33,6.993,1.792-8.212Z" transform="translate(-184.914 -155.084)"/>
      <path id="패스_4865" data-name="패스 4865" d="M263.554,268.58l2.039,7.687L259.6,272.2Z" transform="translate(-186.69 -193.148)" fill="#fbd0be"/>
      <path id="패스_4866" data-name="패스 4866" d="M255.928,292.563l-5.993,10.543L246.16,291.24Z" transform="translate(-177.025 -209.444)" fill="#fbd0be"/>
      <path id="패스_4867" data-name="패스 4867" d="M255.928,285.53l-9.768-1.323,3.775-2.747Z" transform="translate(-177.025 -202.411)" fill="#fbd0be"/>
      <path id="패스_4868" data-name="패스 4868" d="M232.265,56.09,235.6,66.76l-16.284.868Z" transform="translate(-157.723 -40.337)" fill="#ffb275"/>
      <path id="패스_4869" data-name="패스 4869" d="M235.6,94.08l-12.192,12.035L219.32,94.948Z" transform="translate(-157.723 -67.657)" fill="#ea9852"/>
      <path id="패스_4870" data-name="패스 4870" d="M256.6,178.01l-1.033,7.361-6.111-3.309Z" transform="translate(-179.398 -128.015)" fill="#ea9852"/>
      <path id="패스_4871" data-name="패스 4871" d="M256.6,164.828l-7.145,4.053v-9.2Z" transform="translate(-179.398 -114.833)" fill="#ea9852"/>
      <path id="패스_4872" data-name="패스 4872" d="M253.586,360.33l3.008,15.205-7.134-12.571Z" transform="translate(-179.398 -259.13)" fill="#140001"/>
      <path id="패스_4873" data-name="패스 4873" d="M239.493,369.71l7.134,12.571L235.6,377.032Z" transform="translate(-169.431 -265.875)" fill="#dea06c"/>
      <path id="패스_4874" data-name="패스 4874" d="M240.679,414.47l-5.069,9.279-8.28-5.979Z" transform="translate(-163.483 -298.064)" fill="#f9c6a7"/>
      <path id="패스_4875" data-name="패스 4875" d="M240.679,401.029l-13.349,3.3,2.323-8.549Z" transform="translate(-163.483 -284.624)" fill="#f9c6a7"/>
      <path id="패스_4876" data-name="패스 4876" d="M257.13,244.89l4.648,6.654-3.955,3.617Z" transform="translate(-184.914 -176.112)"/>
      <path id="패스_4877" data-name="패스 4877" d="M255.571,195.749l-2.165,3.21-3.946-6.519Z" transform="translate(-179.398 -138.393)" fill="#ea9852"/>
      <path id="패스_4878" data-name="패스 4878" d="M229.637,521.17l3.741,11.428-14.619,5.763Z" transform="translate(-157.32 -374.797)" fill="#f9c6a7"/>
      <path id="패스_4879" data-name="패스 4879" d="M233.378,561.86l-1.871,12.327-12.748-6.564Z" transform="translate(-157.32 -404.059)" fill="#f9c6a7"/>
      <path id="패스_4880" data-name="패스 4880" d="M232.629,26.94l2.648,8.187L223.51,29.358Z" transform="translate(-160.736 -19.374)" fill="#f3954b"/>
      <path id="패스_4881" data-name="패스 4881" d="M212.093,56.09,199.148,67.627,191.27,62.2Z" transform="translate(-137.551 -40.337)" fill="#f3954b"/>
      <path id="패스_4882" data-name="패스 4882" d="M212.093,41.319,191.27,47.43l9.055-11.88Z" transform="translate(-137.551 -25.566)" fill="#fbae6b"/>
      <path id="패스_4883" data-name="패스 4883" d="M252.308,333.49l1.278,7.538-4.126,2.634Z" transform="translate(-179.398 -239.828)" fill="#fbd0be"/>
      <path id="패스_4884" data-name="패스 4884" d="M244.584,192.44l3.946,6.519-5.85,2.227Z" transform="translate(-174.522 -138.393)" fill="#ea9852"/>
      <path id="패스_4885" data-name="패스 4885" d="M248.53,215.65l-1.792,8.212-4.058-5.985Z" transform="translate(-174.522 -155.084)"/>
      <path id="패스_4886" data-name="패스 4886" d="M244.329,244.89l.694,10.271-5.693-1.927Z" transform="translate(-172.113 -176.112)"/>
      <path id="패스_4887" data-name="패스 4887" d="M230.936,291.24l3.775,11.866-9.72-10.543Z" transform="translate(-161.801 -209.444)" fill="#fbd0be"/>
      <path id="패스_4888" data-name="패스 4888" d="M217.655,295.95l9.72,10.543-12.585,2.853Z" transform="translate(-154.465 -212.831)" fill="#fbd0be"/>
      <path id="패스_4889" data-name="패스 4889" d="M227.375,333.49l-2.848,10.173-9.737-7.319Z" transform="translate(-154.465 -239.828)" fill="#fbd0be"/>
      <path id="패스_4890" data-name="패스 4890" d="M245.023,276.527l-3.775,2.747L239.33,274.6Z" transform="translate(-172.113 -197.478)" fill="#d77f31"/>
      <path id="패스_4891" data-name="패스 4891" d="M213.805,447.51,214,468.2l-16.986-7.181Z" transform="translate(-141.679 -321.825)" fill="#f9c6a7"/>
      <path id="패스_4892" data-name="패스 4892" d="M214,502.781l-10.878,17.191L197.01,495.6Z" transform="translate(-141.679 -356.409)" fill="#f9c6a7"/>
      <path id="패스_4893" data-name="패스 4893" d="M237.294,223.58l4.058,5.985-6.162.854Z" transform="translate(-169.136 -160.787)"/>
      <path id="패스_4894" data-name="패스 4894" d="M241.352,244.89l-5,8.344-1.163-7.49Z" transform="translate(-169.136 -176.112)"/>
      <path id="패스_4895" data-name="패스 4895" d="M207.75,440.247l-16.8,13.506L188.59,437.41Z" transform="translate(-135.624 -314.562)" fill="#f9c6a7"/>
      <path id="패스_4896" data-name="패스 4896" d="M207.75,432.2l-19.16-2.837,10.88-3.143Z" transform="translate(-135.624 -306.514)" fill="#f9c6a7"/>
      <path id="패스_4897" data-name="패스 4897" d="M229.532,159.68v9.2l-7.782-5Z" transform="translate(-159.471 -114.833)" fill="#ea9852"/>
      <path id="패스_4898" data-name="패스 4898" d="M225.16,136.93l4.373,6.389-7.782,4.2Z" transform="translate(-159.47 -98.473)" fill="#ea9852"/>
      <path id="패스_4899" data-name="패스 4899" d="M229.532,179.625l-1.9,8.746L221.75,174.62Z" transform="translate(-159.471 -125.577)" fill="#ea9852"/>
      <path id="패스_4900" data-name="패스 4900" d="M209.2,369.71l-3.893,7.322-11.83-3.269Z" transform="translate(-139.14 -265.875)" fill="#fbd0be"/>
      <path id="패스_4901" data-name="패스 4901" d="M209.2,350.969l-15.722,4.053,5.985-11.372Z" transform="translate(-139.14 -247.135)" fill="#fbd0be"/>
      <path id="패스_4902" data-name="패스 4902" d="M229.017,274.6l1.918,4.673L224.99,280.6Z" transform="translate(-161.801 -197.478)" fill="#d77f31"/>
      <path id="패스_4903" data-name="패스 4903" d="M211.157,174.62l5.878,13.751H207.02Z" transform="translate(-148.878 -125.577)" fill="#d77f31"/>
      <path id="패스_4904" data-name="패스 4904" d="M217.035,223.58l-2.1,6.839-7.912-6.839Z" transform="translate(-148.878 -160.787)" fill="#d77f31"/>
      <path id="패스_4905" data-name="패스 4905" d="M227.855,247.93l1.163,7.49-4.027,6Z" transform="translate(-161.801 -178.298)" fill="#d77f31"/>
      <path id="패스_4906" data-name="패스 4906" d="M201.793,395.78l-2.323,8.549-10.88,3.143Z" transform="translate(-135.624 -284.624)" fill="#f9c6a7"/>
      <path id="패스_4907" data-name="패스 4907" d="M181.089,395.78l-13.2,11.692-8.086-8.386Z" transform="translate(-114.919 -284.624)" fill="#fbd0be"/>
      <path id="패스_4908" data-name="패스 4908" d="M181.089,387.409,159.8,390.715l9.459-6.575Z" transform="translate(-114.919 -276.253)" fill="#fbd0be"/>
      <path id="패스_4909" data-name="패스 4909" d="M209.854,247.93l-2.865,13.487-7.03-3.356Z" transform="translate(-143.8 -178.298)" fill="#d77f31"/>
      <path id="패스_4910" data-name="패스 4910" d="M209.854,230.419l-9.895,10.13,1.983-16.969Z" transform="translate(-143.8 -160.787)" fill="#d77f31"/>
      <path id="패스_4911" data-name="패스 4911" d="M201.054,97.17l4.092,11.167-11.226-7.072Z" transform="translate(-139.457 -69.88)" fill="#ea9852"/>
      <path id="패스_4912" data-name="패스 4912" d="M197.947,136.93l-3.41,10.585-10.628.952Z" transform="translate(-132.258 -98.473)" fill="#ea9852"/>
      <path id="패스_4913" data-name="패스 4913" d="M197.947,118.822,183.91,130.359l2.811-18.609Z" transform="translate(-132.258 -80.365)" fill="#ea9852"/>
      <path id="패스_4914" data-name="패스 4914" d="M195.448,295.95l-2.865,13.4-8.673-7.94Z" transform="translate(-132.258 -212.831)" fill="#fbd0be"/>
      <path id="패스_4915" data-name="패스 4915" d="M195.448,287.356l-11.538,5.457L188.418,284Z" transform="translate(-132.258 -204.238)" fill="#fbd0be"/>
      <path id="패스_4916" data-name="패스 4916" d="M200.325,25.23,191.27,37.11l.744-15.91Z" transform="translate(-137.551 -15.246)" fill="#f3954b"/>
      <path id="패스_4917" data-name="패스 4917" d="M194.538,174.62,190.4,188.371l-6.491-12.8Z" transform="translate(-132.258 -125.577)" fill="#d77f31"/>
      <path id="패스_4918" data-name="패스 4918" d="M199.148,83.276l-7.134,4.095-.744-9.521Z" transform="translate(-137.551 -55.986)" fill="#da8746"/>
      <path id="패스_4919" data-name="패스 4919" d="M191.307,495.6l6.109,24.373-8.336-12.689Z" transform="translate(-135.976 -356.409)" fill="#f9c6a7"/>
      <path id="패스_4920" data-name="패스 4920" d="M171.224,537.2l8.336,12.689-15.309-8.035Z" transform="translate(-118.12 -386.325)" fill="#f9c6a7"/>
      <path id="패스_4921" data-name="패스 4921" d="M169.923,343.65l-5.985,11.372L152.4,348.613Z" transform="translate(-109.598 -247.135)" fill="#fbd0be"/>
      <path id="패스_4922" data-name="패스 4922" d="M169.923,323.32,152.4,328.282l8.85-12.9Z" transform="translate(-109.598 -226.804)" fill="#fbd0be"/>
      <path id="패스_4923" data-name="패스 4923" d="M148.312,178.01l6.491,12.8-20.393-2.75Z" transform="translate(-96.66 -128.015)" fill="#d77f31"/>
      <path id="패스_4924" data-name="패스 4924" d="M170.423,223.58l-1.983,16.969-12.31,2.033Z" transform="translate(-112.28 -160.787)" fill="#d77f31"/>
      <path id="패스_4925" data-name="패스 4925" d="M154.8,216.54l-14.293,19-6.1-21.752Z" transform="translate(-96.66 -153.746)" fill="#d77f31"/>
      <path id="패스_4926" data-name="패스 4926" d="M168.44,284l-4.508,8.813-7.8-6.78Z" transform="translate(-112.28 -204.238)" fill="#fbd0be"/>
      <path id="패스_4927" data-name="패스 4927" d="M165.247,437.41l2.365,16.343L156.13,440.247Z" transform="translate(-112.28 -314.562)" fill="#f9c6a7"/>
      <path id="패스_4928" data-name="패스 4928" d="M147.285,447.51l11.481,13.506-14.936-1.637Z" transform="translate(-103.435 -321.825)" fill="#f9c6a7"/>
      <path id="패스_4929" data-name="패스 4929" d="M152.8,495.6l-2.227,11.684-15.04-2.216Z" transform="translate(-97.466 -356.409)" fill="#f9c6a7"/>
      <path id="패스_4930" data-name="패스 4930" d="M152.8,491.407l-17.267,9.468,2.331-11.105Z" transform="translate(-97.466 -352.216)" fill="#f9c6a7"/>
      <path id="패스_4931" data-name="패스 4931" d="M172.583,9.766l-.744,15.91L164.25,5.3Z" transform="translate(-118.12 -3.812)" fill="#ffbb84"/>
      <path id="패스_4932" data-name="패스 4932" d="M155.694,77.85l.744,9.521L141.8,83.276Z" transform="translate(-101.975 -55.986)" fill="#db945c"/>
      <path id="패스_4933" data-name="패스 4933" d="M151.246,111.75l-2.811,18.609-13.855-6.948Z" transform="translate(-96.783 -80.365)" fill="#ea9852"/>
      <path id="패스_4934" data-name="패스 4934" d="M151.246,101.265,134.58,112.926l2.028-15.756Z" transform="translate(-96.783 -69.88)" fill="#da8746"/>
      <path id="패스_4935" data-name="패스 4935" d="M158.141,384.14l-9.459,6.575-4.342-1.261Z" transform="translate(-103.801 -276.253)" fill="#fbd0be"/>
      <path id="패스_4936" data-name="패스 4936" d="M158.141,367.729l-13.8,5.314L146.6,361.32Z" transform="translate(-103.801 -259.842)" fill="#fbd0be"/>
      <path id="패스_4937" data-name="패스 4937" d="M144.927,5.3l7.589,20.376L137.38,21.3Z" transform="translate(-98.796 -3.812)" fill="#f0ab7f"/>
      <path id="패스_4938" data-name="패스 4938" d="M152.515,66.653l-13.894,5.426-1.241-9.8Z" transform="translate(-98.796 -44.789)" fill="#da8746"/>
      <path id="패스_4939" data-name="패스 4939" d="M150.57,531.526,143.6,536.18l-8.066-6.87Z" transform="translate(-97.466 -380.651)" fill="#f9c6a7"/>
      <path id="패스_4940" data-name="패스 4940" d="M157.161,407.55l8.086,8.386-9.117,2.837Z" transform="translate(-112.28 -293.088)" fill="#fbd0be"/>
      <path id="패스_4941" data-name="패스 4941" d="M161.25,298.02l-8.85,12.9,1.048-19.682Z" transform="translate(-109.598 -209.444)" fill="#fbd0be"/>
      <path id="패스_4942" data-name="패스 4942" d="M148.312,160.218l-13.9,10.049.048-17Z" transform="translate(-96.66 -110.224)" fill="#ea9852"/>
      <path id="패스_4943" data-name="패스 4943" d="M121.177,17.491l7.547-16L114.85,0Z" transform="translate(-82.594 0)" fill="#e9a26c"/>
      <path id="패스_4944" data-name="패스 4944" d="M148.682,404.321l-1.031,11.223L144.34,403.06Z" transform="translate(-103.801 -289.859)" fill="#f9c6a7"/>
      <path id="패스_4945" data-name="패스 4945" d="M90.276,213.79l6.1,21.752-23.336.413Z" transform="translate(-52.526 -153.746)" fill="#d77f31"/>
      <path id="패스_4946" data-name="패스 4946" d="M116.5,291.24l-1.048,19.682-14.43-8.5Z" transform="translate(-72.648 -209.444)" fill="#fbd0be"/>
      <path id="패스_4947" data-name="패스 4947" d="M115.193,403.06l3.311,12.484-14.694-4.275Z" transform="translate(-74.654 -289.859)" fill="#f9c6a7"/>
      <path id="패스_4948" data-name="패스 4948" d="M128.572,447.51l-3.454,11.869-7.308-5.061Z" transform="translate(-84.723 -321.825)" fill="#f9c6a7"/>
      <path id="패스_4949" data-name="패스 4949" d="M96.376,291.24,80.9,302.424,73.04,291.653Z" transform="translate(-52.526 -209.444)" fill="#c76d2f"/>
      <path id="패스_4950" data-name="패스 4950" d="M118.5,436.565l-10.762,6.808L103.81,432.29Z" transform="translate(-74.655 -310.88)" fill="#f9c6a7"/>
      <path id="패스_4951" data-name="패스 4951" d="M91.934,361.32l-2.264,11.723L68.32,371.824Z" transform="translate(-49.132 -259.842)" fill="#fbd0be"/>
      <path id="패스_4952" data-name="패스 4952" d="M91.934,339.559l-23.614,10.5,9.184-19Z" transform="translate(-49.132 -238.081)" fill="#fbd0be"/>
      <path id="패스_4953" data-name="패스 4953" d="M89.671,399.939l-11.383,8.209L68.32,398.72Z" transform="translate(-49.132 -286.738)" fill="#f9c6a7"/>
      <path id="패스_4954" data-name="패스 4954" d="M123.68,489.77l-2.331,11.105-5.538-6.7Z" transform="translate(-83.284 -352.216)" fill="#f9c6a7"/>
      <path id="패스_4955" data-name="패스 4955" d="M123.68,476.811l-7.87,4.407.562-9.468Z" transform="translate(-83.284 -339.257)" fill="#f9c6a7"/>
      <path id="패스_4956" data-name="패스 4956" d="M95.979,62.28l1.241,9.8-17.41-2.6Z" transform="translate(-57.395 -44.789)" fill="#db945c"/>
      <path id="패스_4957" data-name="패스 4957" d="M122.419,97.17l-2.028,15.756-5.541-5.457Z" transform="translate(-82.594 -69.88)" fill="#9d4a24"/>
      <path id="패스_4958" data-name="패스 4958" d="M97.22,90.5l-7.569,10.3L79.81,87.9Z" transform="translate(-57.395 -63.213)" fill="#db945c"/>
      <path id="패스_4959" data-name="패스 4959" d="M91.981,0,83.05,7.566l15.259,9.925Z" transform="translate(-59.725 0)" fill="#dc813b"/>
      <path id="패스_4960" data-name="패스 4960" d="M95.979,36.865l-16.169,7.2.91-17.121Z" transform="translate(-57.395 -19.374)" fill="#d68346"/>
      <path id="패스_4961" data-name="패스 4961" d="M90.324,153.27l-.048,17L73.04,192.432Z" transform="translate(-52.526 -110.224)" fill="#ea9852"/>
      <path id="패스_4962" data-name="패스 4962" d="M90.324,153.27,73.04,192.432l3.8-27.791Z" transform="translate(-52.526 -110.224)" fill="#ea9852"/>
      <path id="패스_4963" data-name="패스 4963" d="M100.061,139.3,86.58,150.669l7.94-16.829Z" transform="translate(-62.264 -96.251)" fill="#e9a26c"/>
      <path id="패스_4964" data-name="패스 4964" d="M84.494,432.29l3.932,11.082L76.95,436.565Z" transform="translate(-55.338 -310.88)" fill="#f9c6a7"/>
      <path id="패스_4965" data-name="패스 4965" d="M104.837,471.75l-.562,9.468-4.5-5.575Z" transform="translate(-71.749 -339.257)" fill="#f9c6a7"/>
      <path id="패스_4966" data-name="패스 4966" d="M88.426,454.318l-5.067,3.893-6.409-10.7Z" transform="translate(-55.338 -321.825)" fill="#f9c6a7"/>
      <path id="패스_4967" data-name="패스 4967" d="M73.244,87.9l9.841,12.9L70.68,97.2Z" transform="translate(-50.829 -63.213)" fill="#d68346"/>
      <path id="패스_4968" data-name="패스 4968" d="M83.085,124.628l-7.94,16.829L70.68,121.03Z" transform="translate(-50.829 -87.038)" fill="#e9a26c"/>
      <path id="패스_4969" data-name="패스 4969" d="M78.288,408.148l-7.544,4.275-2.424-13.7Z" transform="translate(-49.132 -286.738)" fill="#f9c6a7"/>
      <path id="패스_4970" data-name="패스 4970" d="M55.457,292.71l7.858,10.771-14.725,1.3Z" transform="translate(-34.943 -210.501)" fill="#d58241"/>
      <path id="패스_4971" data-name="패스 4971" d="M63.315,331.06l-9.184,19-5.541-17.7Z" transform="translate(-34.943 -238.08)" fill="#ea9852"/>
      <path id="패스_4972" data-name="패스 4972" d="M67.1,193.76l-3.8,27.791L59.49,208.12Z" transform="translate(-42.782 -139.342)" fill="#d77f31"/>
      <path id="패스_4973" data-name="패스 4973" d="M36.253,398.72l2.424,13.7-14.947-.635Z" transform="translate(-17.065 -286.738)" fill="#f0a96b"/>
      <path id="패스_4974" data-name="패스 4974" d="M45.934,244.89l3.806,13.43-9.1-5.833Z" transform="translate(-29.226 -176.112)" fill="#ea9852"/>
      <path id="패스_4975" data-name="패스 4975" d="M49.74,277.773l-6.867,12.074L40.64,271.94Z" transform="translate(-29.226 -195.565)" fill="#f0a96b"/>
      <path id="패스_4976" data-name="패스 4976" d="M0,353.73l19.188-.331-5.541-17.7Z" transform="translate(0 -241.417)" fill="#ffbb84"/>
      <path id="패스_4977" data-name="패스 4977" d="M12.133,271.94l2.233,17.907L1,290.249Z" transform="translate(-0.719 -195.565)" fill="#ffbb84"/>
    </g>
  </g>
</svg>
