<svg xmlns="http://www.w3.org/2000/svg" xmlns:xlink="http://www.w3.org/1999/xlink" width="40" height="40" viewBox="0 0 40 40">
  <defs>
    <clipPath id="clip-path">
      <rect id="사각형_4182" data-name="사각형 4182" width="40" height="40" rx="20" transform="translate(-20806 -8809)"/>
    </clipPath>
  </defs>
  <g id="icon01_setting" transform="translate(20806 8809)" clip-path="url(#clip-path)">
    <rect id="사각형_4181" data-name="사각형 4181" width="40" height="40" transform="translate(-20806 -8809)" fill="#fff2f4"/>
    <path id="패스_4978" data-name="패스 4978" d="M23.668,14.191a.426.426,0,0,1-.387-.288c-.047-.124-.1-.25-.153-.371a.409.409,0,0,1,.067-.459,1.84,1.84,0,0,0,0-2.6l-.661-.662a1.846,1.846,0,0,0-2.606,0,.406.406,0,0,1-.457.067c-.122-.054-.247-.106-.373-.153a.423.423,0,0,1-.286-.387A1.835,1.835,0,0,0,16.979,7.5h-.958a1.835,1.835,0,0,0-1.832,1.832.423.423,0,0,1-.286.387c-.126.047-.25.1-.373.153a.405.405,0,0,1-.457-.067,1.846,1.846,0,0,0-2.606,0l-.662.662a1.845,1.845,0,0,0,0,2.6.406.406,0,0,1,.068.459c-.054.121-.106.247-.155.371a.423.423,0,0,1-.387.288A1.832,1.832,0,0,0,7.5,16.021v.958a1.833,1.833,0,0,0,1.831,1.832.423.423,0,0,1,.387.286c.049.126.1.25.155.373a.406.406,0,0,1-.068.459,1.845,1.845,0,0,0,0,2.6l.662.662a1.846,1.846,0,0,0,2.606,0,.406.406,0,0,1,.457-.068c.122.056.248.108.373.155a.421.421,0,0,1,.286.387A1.834,1.834,0,0,0,16.021,25.5h.958a1.834,1.834,0,0,0,1.832-1.831.421.421,0,0,1,.286-.387c.124-.047.248-.1.373-.155a.406.406,0,0,1,.457.068,1.844,1.844,0,0,0,2.6,0l.662-.662a1.84,1.84,0,0,0,0-2.6.409.409,0,0,1-.067-.459c.054-.122.106-.247.153-.373a.427.427,0,0,1,.387-.286A1.834,1.834,0,0,0,25.5,16.979v-.958A1.834,1.834,0,0,0,23.668,14.191Zm-7.168,4.9A2.593,2.593,0,1,1,19.094,16.5,2.593,2.593,0,0,1,16.5,19.094Z" transform="translate(-20802.5 -8805.5)" fill="#ffb0b3"/>
  </g>
</svg>
