<svg xmlns="http://www.w3.org/2000/svg" xmlns:xlink="http://www.w3.org/1999/xlink" width="97.5" height="58" viewBox="0 0 97.5 58">
  <defs>
    <clipPath id="clip-path">
      <rect id="사각형_4033" data-name="사각형 4033" width="26" height="26" transform="translate(-18428 -17751)" fill="#ffb0b3" opacity="0.2"/>
    </clipPath>
    <clipPath id="clip-path-2">
      <rect id="사각형_4037" data-name="사각형 4037" width="26" height="26" transform="translate(0 0)" fill="#ffb0b3"/>
    </clipPath>
  </defs>
  <g id="nav_home" transform="translate(-68 -1086)">
    <rect id="사각형_4032" data-name="사각형 4032" width="97.5" height="58" transform="translate(68 1086)" fill="#fff2f4"/>
    <g id="그룹_19173" data-name="그룹 19173" transform="translate(0.8)">
      <g id="마스크_그룹_16" data-name="마스크 그룹 16" transform="translate(18531 18846)" clip-path="url(#clip-path)">
        <g id="그룹_95" data-name="그룹 95" transform="translate(-18428 -17751)">
          <g id="그룹_94" data-name="그룹 94" clip-path="url(#clip-path-2)">
            <path id="패스_1103" data-name="패스 1103" d="M25.74,12.162l-3.3-3.245,0,0L13.607.248A1.126,1.126,0,0,0,12.993,0a.868.868,0,0,0-.611.26L.248,12.622a.867.867,0,1,0,1.238,1.214l2.142-2.183V25.134A.865.865,0,0,0,4.494,26H21.828a.865.865,0,0,0,.866-.866V11.6l1.833,1.8a.866.866,0,1,0,1.213-1.237M10.561,24.082V18.053a3.292,3.292,0,0,1,2.57-1.242,3.457,3.457,0,0,1,2.63,1.251v6.02Zm10.4.185H17.494v-6.5a1.117,1.117,0,0,0-.2-.563,4.915,4.915,0,0,0-4.175-2.127,5.075,5.075,0,0,0-4.135,2.2.871.871,0,0,0-.152.491v6.5H5.361V9.888l7.65-7.795,7.95,7.8Z" fill="#ffb0b3"/>
            <path id="패스_1104" data-name="패스 1104" d="M9.966,8.6a1.8,1.8,0,0,0-1.691,1.886,2.016,2.016,0,0,0,.1.62,1.969,1.969,0,0,0-.06,2.187,1.726,1.726,0,0,0,1.182.78,1.677,1.677,0,0,0,.253.019,1.82,1.82,0,0,0,1.634-1.116c.608.037,1.348.068,2.137.068.493,0,.962-.013,1.4-.037a1.709,1.709,0,0,0,1.544,1.09,1.655,1.655,0,0,0,1.3-.687,2.022,2.022,0,0,0,.367-1.287A1.993,1.993,0,0,0,18,11.507a1.929,1.929,0,0,0,.3-.851A1.832,1.832,0,0,0,16.729,8.6c-.028,0-.137-.008-.166-.008a1.818,1.818,0,0,0-1.75,1.513c-.4.022-.834.033-1.289.033-.7,0-1.353-.025-1.906-.057A1.748,1.748,0,0,0,9.966,8.6m5.764,2.308a1.08,1.08,0,0,1-.084-.516.979.979,0,0,1,.917-.928.727.727,0,0,1,.08,0,.965.965,0,0,1,.8,1.1,1.033,1.033,0,0,1-.542.819,1.087,1.087,0,0,1,.374.779.937.937,0,0,1-.769,1.061h-.036a.949.949,0,0,1-.841-.976,1.209,1.209,0,0,1,.019-.171c-.7.068-1.429.093-2.124.093-1.163,0-2.225-.069-2.855-.122a1.121,1.121,0,0,1,.007.29.987.987,0,0,1-.923.88.845.845,0,0,1-.122-.009.965.965,0,0,1-.735-1.144,1.033,1.033,0,0,1,.584-.789,1.085,1.085,0,0,1-.333-.8.937.937,0,0,1,.824-1.019.937.937,0,0,1,.824,1.019,1.218,1.218,0,0,1-.07.406c.637.052,1.673.118,2.8.118a21.685,21.685,0,0,0,2.206-.1" fill="#ffb0b3"/>
          </g>
        </g>
      </g>
      <text id="HOME" transform="translate(102 1135)" fill="#ffb0b3" font-size="12" font-family="Cafe24Syongsyong, Cafe24 Syongsyong"><tspan x="0" y="0">HOME</tspan></text>
    </g>
  </g>
</svg>
