<svg xmlns="http://www.w3.org/2000/svg" width="20" height="20" viewBox="0 0 20 20">
  <g id="icon_제휴문의" transform="translate(14764 10569)">
    <rect id="사각형_4214" data-name="사각형 4214" width="20" height="20" transform="translate(-14764 -10569)" fill="none" opacity="0.2"/>
    <g id="그룹_19323" data-name="그룹 19323" transform="translate(8 -9)">
      <g id="그룹_19322" data-name="그룹 19322" transform="translate(-11 -10.401)">
        <path id="Path_33961" d="M6.824,13.155A25.671,25.671,0,0,1,2.387,9.7,8.835,8.835,0,0,1,.275,6.333C-.518,3.869.408,1.047,3,.212A4.4,4.4,0,0,1,7,.885H7a4.412,4.412,0,0,1,4-.673c2.592.835,3.524,3.657,2.732,6.122A8.835,8.835,0,0,1,11.614,9.7a25.671,25.671,0,0,1-4.437,3.455L7,13.263Z" transform="translate(-14758 -10546.6)" fill="none" stroke="#ff99a0" stroke-linecap="round" stroke-linejoin="round" stroke-width="1.5"/>
        <path id="Path_33964" d="M0,0A2.05,2.05,0,0,1,1.412,1.785" transform="translate(-14748.244 -10543.613)" fill="none" stroke="#ff99a0" stroke-linecap="round" stroke-linejoin="round" stroke-width="1.5"/>
      </g>
      <rect id="사각형_4238" data-name="사각형 4238" width="14" height="14" transform="translate(-14769 -10557)" fill="none"/>
    </g>
  </g>
</svg>
