<svg xmlns="http://www.w3.org/2000/svg" width="40" height="40" viewBox="0 0 40 40">
  <g id="icon_img" transform="translate(12658 10664)">
    <rect id="banner_bg" width="40" height="40" rx="20" transform="translate(-12658 -10664)" fill="none"/>
    <g id="그룹_19335" data-name="그룹 19335" transform="translate(5 5)">
      <g id="Image" transform="translate(-12652.75 -10658.75)">
        <path id="Stroke_1" data-name="Stroke 1" d="M18,5.021v7.947c0,2.945-1.843,5.022-4.788,5.022H4.778C1.833,17.989,0,15.912,0,12.968V5.021C0,2.076,1.843,0,4.778,0h8.434C16.157,0,18,2.076,18,5.021Z" transform="translate(0.75 0.751)" fill="none" stroke="#ffb0b3" stroke-linecap="round" stroke-linejoin="round" stroke-width="1.5"/>
        <path id="Stroke_3" data-name="Stroke 3" d="M0,4.037,1.491,2.464a1.37,1.37,0,0,1,1.981-.008l.863.88a1.4,1.4,0,0,0,2.078-.092L8.587.6A1.645,1.645,0,0,1,11.039.5l2.024,2.089" transform="translate(3.218 10.055)" fill="none" stroke="#ffb0b3" stroke-linecap="round" stroke-linejoin="round" stroke-width="1.5"/>
        <path id="Stroke_5" data-name="Stroke 5" d="M3.42,1.71A1.71,1.71,0,1,1,1.709,0,1.711,1.711,0,0,1,3.42,1.71Z" transform="translate(4.705 5.265)" fill="none" stroke="#ffb0b3" stroke-linecap="round" stroke-linejoin="round" stroke-width="1.5"/>
      </g>
      <rect id="banner_bg-2" data-name="banner_bg" width="18" height="18" transform="translate(-12652 -10658)" fill="none"/>
    </g>
  </g>
</svg>
