<svg xmlns="http://www.w3.org/2000/svg" xmlns:xlink="http://www.w3.org/1999/xlink" width="390" height="763" viewBox="0 0 390 763">
  <defs>
    <clipPath id="clip-path">
      <rect id="사각형_4169" data-name="사각형 4169" width="390" height="763" transform="translate(0 47)" fill="#ffdfde"/>
    </clipPath>
    <clipPath id="clip-path-2">
      <rect id="사각형_4168" data-name="사각형 4168" width="977.904" height="841.001" transform="translate(0 -45.625)" fill="none"/>
    </clipPath>
    <clipPath id="clip-path-3">
      <rect id="사각형_4140" data-name="사각형 4140" width="977.904" height="795.376" fill="none"/>
    </clipPath>
    <clipPath id="clip-path-4">
      <path id="패스_3537" data-name="패스 3537" d="M9.958,685.79c3.185,38.464,128.891,89.63,261.777,97.823,54.152,3.339,114.305,1.185,177.158-.967,91.385-3.132,188.481-6.263,281.15,7.486,156.4,23.2,229.36-34.018,246.234-104.342Z" fill="none"/>
    </clipPath>
    <clipPath id="clip-path-6">
      <rect id="사각형_4142" data-name="사각형 4142" width="966.319" height="13.105" transform="translate(9.958 672.685)" fill="none"/>
    </clipPath>
    <clipPath id="clip-path-7">
      <path id="패스_3606" data-name="패스 3606" d="M627.347,532.118c-15.47,1.683-39.8.242-39.8.242-.979,6.75-6.786,17.208-12.629,28.513s-2.741,23.823-2.741,23.823.425,2.225,30.054,1.228,39.481-.765,39.481-.765-6.909-8.431-.613-22.264,11.392-27.884,11.392-27.884-6.9-3.265-18.364-3.265a62.511,62.511,0,0,0-6.775.372" fill="none"/>
    </clipPath>
    <clipPath id="clip-path-8">
      <rect id="사각형_4155" data-name="사각형 4155" width="48.677" height="83.777" transform="translate(148.642 450.847)" fill="none"/>
    </clipPath>
    <clipPath id="clip-path-9">
      <rect id="사각형_4156" data-name="사각형 4156" width="64.178" height="49.249" transform="translate(100.951 543.188)" fill="none"/>
    </clipPath>
    <clipPath id="clip-path-10">
      <rect id="사각형_4157" data-name="사각형 4157" width="49.102" height="57.367" transform="translate(164.004 543.984)" fill="none"/>
    </clipPath>
  </defs>
  <g id="bg_max390_" data-name="bg(max390)" transform="translate(0 -47)" clip-path="url(#clip-path)">
    <rect id="사각형_4139" data-name="사각형 4139" width="390" height="763" transform="translate(0 47)" fill="#ffdfde"/>
    <g id="그룹_19228" data-name="그룹 19228" transform="translate(-293.953 92.625)" opacity="0.6">
      <g id="그룹_19227" data-name="그룹 19227" clip-path="url(#clip-path-2)">
        <g id="그룹_19206" data-name="그룹 19206">
          <g id="그룹_19205" data-name="그룹 19205" clip-path="url(#clip-path-3)">
            <path id="패스_3524" data-name="패스 3524" d="M954.495,735.581c52.283-100.922,16.814-229.64-104.672-254.232C492.2,408.956,501.684,324.911,378.032,292.219,190.551,242.652,71.589,342.4,30.482,446.257,11.453,494.334-7.341,574.171,2.886,645.6c7.414,51.782,51.331,89.978,102.663,89.978Z" fill="#f4f9f4"/>
            <path id="패스_3525" data-name="패스 3525" d="M9.958,685.79c3.184,38.465,128.891,89.631,261.777,97.823s301.9-16.686,458.308,6.519S959.4,756.114,976.277,685.79Z" fill="#fef2e7"/>
          </g>
        </g>
        <g id="그룹_19208" data-name="그룹 19208">
          <g id="그룹_19207" data-name="그룹 19207" clip-path="url(#clip-path-4)">
            <path id="패스_3526" data-name="패스 3526" d="M132.356,784.254,74.7,686.1l1.89-.616,57.657,98.156Z" fill="#edb685"/>
            <path id="패스_3527" data-name="패스 3527" d="M214.871,784.254,157.214,686.1l1.89-.616,57.657,98.156Z" fill="#edb685"/>
            <path id="패스_3528" data-name="패스 3528" d="M379.9,784.254,322.246,686.1l1.89-.616,57.657,98.156Z" fill="#edb685"/>
            <path id="패스_3529" data-name="패스 3529" d="M462.418,784.254,404.761,686.1l1.89-.616,57.657,98.156Z" fill="#edb685"/>
            <path id="패스_3530" data-name="패스 3530" d="M297.387,784.254,239.73,686.1l1.89-.616,57.657,98.156Z" fill="#edb685"/>
            <path id="패스_3531" data-name="패스 3531" d="M544.935,784.254,487.278,686.1l1.89-.616,57.657,98.156Z" fill="#edb685"/>
            <path id="패스_3532" data-name="패스 3532" d="M627.45,784.254,569.793,686.1l1.89-.616,57.657,98.156Z" fill="#edb685"/>
            <path id="패스_3533" data-name="패스 3533" d="M709.966,784.254,652.309,686.1l1.89-.616,57.657,98.156Z" fill="#edb685"/>
            <path id="패스_3534" data-name="패스 3534" d="M792.482,784.254,734.826,686.1l1.889-.616,57.657,98.156Z" fill="#edb685"/>
            <path id="패스_3535" data-name="패스 3535" d="M875,784.254,817.341,686.1l1.889-.616,57.657,98.156Z" fill="#edb685"/>
            <path id="패스_3536" data-name="패스 3536" d="M957.513,784.254,899.857,686.1l1.889-.616L959.4,783.638Z" fill="#edb685"/>
          </g>
        </g>
        <g id="그룹_19213" data-name="그룹 19213">
          <g id="그룹_19212" data-name="그룹 19212" clip-path="url(#clip-path-3)">
            <g id="그룹_19211" data-name="그룹 19211" opacity="0.7">
              <g id="그룹_19210" data-name="그룹 19210">
                <g id="그룹_19209" data-name="그룹 19209" clip-path="url(#clip-path-6)">
                  <rect id="사각형_4141" data-name="사각형 4141" width="966.319" height="13.105" transform="translate(9.958 672.685)" fill="#edb685"/>
                </g>
              </g>
            </g>
            <path id="패스_3538" data-name="패스 3538" d="M438.238,691.58v.013a44.622,44.622,0,0,0,1.3,10.75h9.269a36.45,36.45,0,0,1-1.62-10.75v-.013c0-.96.039-1.914.11-2.858,1.51-19.43,18.292-34.742,38.776-34.742s37.266,15.312,38.775,34.742c.071.944.11,1.9.11,2.858v.013a36.449,36.449,0,0,1-1.619,10.75h9.272a44.774,44.774,0,0,0,1.3-10.75v-.013q0-1.44-.091-2.858c-1.525-24.218-22.323-43.4-47.752-43.4s-46.224,19.181-47.749,43.4q-.093,1.416-.091,2.858" fill="#c6865b"/>
            <path id="패스_3539" data-name="패스 3539" d="M486.349,642.452c27.971,0,50.647,20.709,50.647,46.257v.013a42.474,42.474,0,0,1-2.237,13.621H524.722a34.661,34.661,0,0,0,2.792-13.621v-.013c0-20.766-18.43-37.6-41.165-37.6s-41.168,16.834-41.168,37.6v.013a34.679,34.679,0,0,0,2.791,13.621H437.939a42.476,42.476,0,0,1-2.238-13.621v-.013c0-25.548,22.677-46.257,50.648-46.257" fill="#f3d18e"/>
            <rect id="사각형_4143" data-name="사각형 4143" width="14.151" height="173.85" transform="translate(418.66 519.519)" fill="#c6865b"/>
            <path id="패스_3540" data-name="패스 3540" d="M374.621,515.941c0,5.794,22.934,10.492,51.225,10.492s51.225-4.7,51.225-10.492-22.934-10.492-51.225-10.492-51.225,4.7-51.225,10.492" fill="#ba794d"/>
            <rect id="사각형_4144" data-name="사각형 4144" width="102.451" height="20.984" transform="translate(374.621 494.957)" fill="#ba794d"/>
            <path id="패스_3541" data-name="패스 3541" d="M374.621,494.957c0,1.3,1.159,2.56,3.276,3.715,7.314,3.987,26.073,6.822,48.059,6.822s40.744-2.835,48.058-6.822c2.117-1.155,3.058-2.41,3.058-3.715,0-5.82-22.768-10.536-51.116-10.536s-51.335,4.716-51.335,10.536" fill="#ba794d"/>
            <path id="패스_3542" data-name="패스 3542" d="M425.955,508.844c21.335,0,40.743-2.766,48.294-6.882l-.471-.837c-7.419,4.044-26.638,6.762-47.823,6.762s-40.4-2.718-47.823-6.762l-.471.837c7.551,4.116,26.959,6.882,48.294,6.882" fill="#c6865b"/>
            <path id="패스_3543" data-name="패스 3543" d="M377.683,495.9c0,1.222,1.085,2.4,3.067,3.477,6.846,3.732,24.406,6.386,44.986,6.386s38.141-2.654,44.987-6.386c1.982-1.081,3.067-2.255,3.067-3.477,0-5.448-21.517-9.863-48.054-9.863s-48.053,4.415-48.053,9.863" fill="#c6865b"/>
            <path id="패스_3544" data-name="패스 3544" d="M380.75,499.377c6.846,3.732,24.406,6.386,44.987,6.386s38.14-2.654,44.986-6.386c-6.846-3.736-24.406-6.389-44.986-6.389s-38.141,2.653-44.987,6.389" fill="#f3d18e"/>
            <rect id="사각형_4145" data-name="사각형 4145" width="202.237" height="13.621" transform="translate(335.229 688.722)" fill="#c6865b"/>
            <path id="패스_3545" data-name="패스 3545" d="M364.3,689.348h4.536c1.674,0,3.032-1.947,3.032-4.35l-.265-5.183-10.128-.2-.207,5.38c0,2.4,1.358,4.35,3.032,4.35" fill="#c6865b"/>
            <path id="패스_3546" data-name="패스 3546" d="M364.3,682.426h4.536c1.674,0,3.032-1.948,3.032-4.35l-.265-5.183-10.128-.2-.207,5.38c0,2.4,1.358,4.35,3.032,4.35" fill="#ba794d"/>
            <path id="패스_3547" data-name="패스 3547" d="M364.3,675.505h4.536c1.674,0,3.032-1.948,3.032-4.35l-.265-5.183-10.128-.2-.207,5.38c0,2.4,1.358,4.35,3.032,4.35" fill="#c6865b"/>
            <path id="패스_3548" data-name="패스 3548" d="M364.3,668.583h4.536c1.674,0,3.032-1.947,3.032-4.35l-.265-5.183-10.128-.2-.207,5.38c0,2.4,1.358,4.35,3.032,4.35" fill="#ba794d"/>
            <path id="패스_3549" data-name="패스 3549" d="M364.3,661.661h4.536c1.674,0,3.032-1.947,3.032-4.35l-.265-5.183-10.128-.2-.207,5.38c0,2.4,1.358,4.35,3.032,4.35" fill="#c6865b"/>
            <path id="패스_3550" data-name="패스 3550" d="M364.3,654.74h4.536c1.674,0,3.032-1.948,3.032-4.35l-.265-5.183-10.128-.2-.207,5.38c0,2.4,1.358,4.35,3.032,4.35" fill="#ba794d"/>
            <path id="패스_3551" data-name="패스 3551" d="M364.3,647.818h4.536c1.674,0,3.032-1.947,3.032-4.35l-.265-5.183-10.128-.2-.207,5.38c0,2.4,1.358,4.35,3.032,4.35" fill="#c6865b"/>
            <path id="패스_3552" data-name="패스 3552" d="M364.3,640.9h4.536c1.674,0,3.032-1.948,3.032-4.35l-.265-5.183-10.128-.2-.207,5.38c0,2.4,1.358,4.35,3.032,4.35" fill="#ba794d"/>
            <path id="패스_3553" data-name="패스 3553" d="M364.3,633.975h4.536c1.674,0,3.032-1.948,3.032-4.35l-.265-5.183-10.128-.2-.207,5.38c0,2.4,1.358,4.35,3.032,4.35" fill="#c6865b"/>
            <path id="패스_3554" data-name="패스 3554" d="M364.3,627.053h4.536c1.674,0,3.032-1.947,3.032-4.35l-.265-5.183-10.128-.2-.207,5.38c0,2.4,1.358,4.35,3.032,4.35" fill="#ba794d"/>
            <rect id="사각형_4146" data-name="사각형 4146" width="84.921" height="58.008" transform="translate(333.739 563.223)" fill="#c6865b"/>
            <rect id="사각형_4147" data-name="사각형 4147" width="76.255" height="58.008" transform="translate(342.406 563.223)" fill="#f3d18e"/>
            <path id="패스_3555" data-name="패스 3555" d="M360.875,592.227c0,9.372,8.8,16.967,19.658,16.967.768,0,1.522-.038,2.267-.111,9.787-.97,17.391-8.144,17.391-16.856s-7.6-15.886-17.391-16.856c-.745-.073-1.5-.111-2.267-.111-10.855,0-19.658,7.595-19.658,16.967" fill="#c6865b"/>
            <path id="패스_3556" data-name="패스 3556" d="M365.409,592.227c0,8.712,7.6,15.886,17.391,16.856,9.787-.97,17.391-8.144,17.391-16.856s-7.6-15.886-17.391-16.856c-9.787.97-17.391,8.144-17.391,16.856" fill="#ba794d"/>
            <path id="패스_3557" data-name="패스 3557" d="M461.331,588.586l.97-.042a94.581,94.581,0,0,1,2.652-22.925c3.349-14.424,6.385-30.937-.034-44.361l-.879.407c6.287,13.15,3.279,29.473-.034,43.741a95.476,95.476,0,0,0-2.675,23.18" fill="#c6865b"/>
            <path id="패스_3558" data-name="패스 3558" d="M453.182,596.7a8.614,8.614,0,1,0,8.613-8.484,8.549,8.549,0,0,0-8.613,8.484" fill="#f3d18e"/>
            <path id="패스_3559" data-name="패스 3559" d="M462.124,592.347c2.079,0,4.562-.422,5.293-1.229l-.725-.637c-.345.38-2.248.909-4.567.909h-.01c-2.285,0-4.046-.5-4.832-1.372l-.726.636c1.329,1.471,4.052,1.692,5.557,1.693Z" fill="#c6865b"/>
            <path id="패스_3560" data-name="패스 3560" d="M460.883,598.561a20.691,20.691,0,0,0,2.843-.2l-.136-.948c-6.758.944-9.621-1.879-9.649-1.907l-.7.661c.109.113,2.386,2.4,7.645,2.4" fill="#c6865b"/>
            <path id="패스_3561" data-name="패스 3561" d="M462.081,603.442a12.924,12.924,0,0,0,6.539-1.593l-.5-.82c-3.8,2.257-8.9,1.2-8.948,1.193l-.207.936a16.3,16.3,0,0,0,3.117.284" fill="#c6865b"/>
            <path id="패스_3562" data-name="패스 3562" d="M273.146,611.753c.007.9-.065,2.273-.2,4.044-1.44,19.051-10.29,83.941-12.073,96.944-.208,1.5-1.274,2.539-2.45,2.365a2.726,2.726,0,0,1-1.906-1.509c-1.443-4.277,4.675-75.837,6.6-97.8.35-4.007.56-6.361.56-6.361s9.393-9.375,9.468,2.317" fill="#f2ac66"/>
            <path id="패스_3563" data-name="패스 3563" d="M213.676,613.011c-.037.588-.119,1.373-.242,2.334-2.1,16.4-16.112,84.322-18.864,97.587-.306,1.489-1.44,2.444-2.6,2.192a2.733,2.733,0,0,1-1.8-1.634c-1.216-4.642,11.228-84.434,13.769-100.594l.449-2.841s10.008-8.712,9.291,2.956" fill="#f2ac66"/>
            <path id="패스_3564" data-name="패스 3564" d="M399.235,713.853a2.72,2.72,0,0,1-1.777,1.655c-1.158.268-2.3-.673-2.633-2.158C391.9,700.065,376.9,631.787,374.7,615.8c-.119-.866-.2-1.576-.241-2.12-.866-11.658,9.251-3.072,9.251-3.072s.326,1.9.883,5.192c3.448,20.323,15.752,93.6,14.638,98.056" fill="#f2ac66"/>
            <path id="패스_3565" data-name="패스 3565" d="M213.676,613.011c-.037.588-.119,1.373-.242,2.334a44.424,44.424,0,0,1-9.5-2.449c.289-1.828,1.543-7.016,1.543-7.016s8.914-4.537,8.2,7.131" fill="#db904d"/>
            <path id="패스_3566" data-name="패스 3566" d="M273.146,611.753c.007.9-.065,2.273-.2,4.044h-9.831c.35-4.007.56-6.361.56-6.361s9.393-9.375,9.468,2.317" fill="#db904d"/>
            <path id="패스_3567" data-name="패스 3567" d="M384.6,615.8H374.7c-.118-.867-.2-1.577-.241-2.12-.866-11.658,9.251-3.072,9.251-3.072s.326,1.9.883,5.192" fill="#db904d"/>
            <path id="패스_3568" data-name="패스 3568" d="M407.884,589.083c-.089.812-.149,1.376-.163,1.448-.024.139-.051.271-.075.4-.238,1.213-.5,2.389-.8,3.524-.119.452-.245.9-.378,1.339s-.278.87-.431,1.294a20.629,20.629,0,0,1-2.68,5.257,16.3,16.3,0,0,1-1.706,2,18,18,0,0,1-4.671,3.324c-.472.237-.961.465-1.474.679a35.892,35.892,0,0,1-9.237,2.688H219.77c-26.124,0-47.3-22.63-47.3-50.544V461.024c0-12.525,7.823-23.092,18.528-26.439l.01,0a6.112,6.112,0,0,1,1.8-.272l112.16-.466c8.52-.037,16.1,5.776,18.8,14.414l17.383,55.633c.163.513.336,1.02.523,1.519.061.167.129.33.2.5.044.116.092.232.143.35.054.136.108.272.169.4a26.825,26.825,0,0,0,2.766,4.869c.064.1.136.187.2.282.169.227.343.455.516.679.1.126.2.249.3.371a26.221,26.221,0,0,0,2.572,2.732c.064.061.132.122.2.18q.224.2.451.4c.578.5,1.176.969,1.787,1.41.1.075.2.147.3.214.135.1.271.191.411.282.275.187.557.367.842.541.14.088.282.173.425.258s.268.157.4.231a24.168,24.168,0,0,0,2.259,1.131q.23.1.459.194c.149.065.3.129.458.187s.309.122.465.177c.252.095.507.183.765.272.122.04.248.081.374.119.176.057.356.112.533.163.126.037.251.071.377.105.149.044.3.081.452.119.19.048.384.1.581.139.237.055.479.106.72.153.054.01.112.021.17.034.2.037.407.075.614.1.075.014.15.028.232.038.22.034.445.064.665.092.113.013.221.027.33.037s.241.027.363.037h.017c.14.014.282.028.422.038.567.044,1.141.064,1.715.068l2.439,0h.031c14.574.846,22.584.214,28.346,3.792,3.128,1.944,5.6,5.127,8.1,10.469,2.113,4.509,2.711,23.972,3.852,39.31a73.144,73.144,0,0,1-.21,13.194" fill="#d5837d"/>
            <path id="패스_3569" data-name="패스 3569" d="M210.644,522.593a18.429,18.429,0,0,1-13.791-6.071c-3.173-3.346-5.8-8.079-7.81-14.069-4.129-12.308-4.338-25.826-4.338-28.41,0-1.694-.069-3.589-.142-5.6-.411-11.275-.974-26.716,9.836-34.287l.477.681c-10.439,7.312-9.886,22.492-9.482,33.576.074,2.013.143,3.916.143,5.625,0,1.948.285,47.718,25.107,47.718Z" fill="#f3eaea"/>
            <path id="패스_3570" data-name="패스 3570" d="M407.884,589.083c-.089.812-.149,1.376-.163,1.448-.024.139-.051.271-.075.4-.238,1.213-.5,2.389-.8,3.524-.119.452-.245.9-.378,1.339s-.278.87-.431,1.294a20.629,20.629,0,0,1-2.68,5.257,16.3,16.3,0,0,1-1.706,2,18,18,0,0,1-4.671,3.324c-.472.237-.961.465-1.474.679a35.892,35.892,0,0,1-9.237,2.688H360.433c15.891-2.164,19.38-9.976,21.374-20.109.157-.785.292-1.719.422-2.776a71.128,71.128,0,0,0,.377-12.235c-.761-14.322-1.335-33.211-4.2-39.341-4.213-9-7.851-12.909-15.227-14.37h.017c.14.014.282.028.422.038.567.044,1.141.064,1.715.068l2.439,0h.031c14.574.846,22.584.214,28.346,3.792,3.128,1.944,5.6,5.127,8.1,10.469,2.113,4.509,2.711,23.972,3.852,39.31a73.144,73.144,0,0,1-.21,13.194" fill="#f3eaea"/>
            <path id="패스_3571" data-name="패스 3571" d="M369.324,577.7c-2.012-.576-49.3-14.171-52.875-22.806-4.857-11.748-8.234-84.94-8.375-88.049l1.513-.073c.035.76,3.506,76.026,8.259,87.522,2.731,6.6,38.38,18.06,51.887,21.917Z" fill="#f3eaea"/>
            <rect id="사각형_4148" data-name="사각형 4148" width="1.546" height="98.276" transform="translate(273.134 579.668) rotate(-89.085)" fill="#f3eaea"/>
            <rect id="사각형_4149" data-name="사각형 4149" width="52.423" height="1.545" transform="translate(264.725 553.822)" fill="#f3eaea"/>
            <path id="패스_3572" data-name="패스 3572" d="M258.373,610.956H284.21c-16.012-2.137-19.516-9.626-21.519-19.789s-1.39-45.223-5.5-54.016c-7.8-16.677-15.927-12.345-44.261-14.767,9.164,1.063,13.743,4.77,18.42,14.767,4.115,8.793,3.5,43.856,5.507,54.016s5.5,17.652,21.52,19.789" fill="#f3eaea"/>
            <path id="패스_3573" data-name="패스 3573" d="M821.138,614.723c-.022,2.771.88,10.254,2.243,19.937,3.6,25.552,10.438,66.409,12.09,76.221a2.624,2.624,0,0,0,2.859,2.251,3.167,3.167,0,0,0,2.224-1.437c1.37-3.309-3.082-48.828-6-77.035-1.333-12.877-2.35-22.143-2.35-22.143s-10.973-8.925-11.062,2.206" fill="#f2ac66"/>
            <path id="패스_3574" data-name="패스 3574" d="M888.476,614.24c-.022,2.693.828,9.838,2.128,19.127,3.572,25.493,10.534,67.115,12.205,77.032a2.624,2.624,0,0,0,2.859,2.25,3.168,3.168,0,0,0,2.228-1.433c1.441-3.488-3.583-53.875-6.465-81.452-1.1-10.529-1.893-17.73-1.893-17.73s-10.973-8.925-11.062,2.206" fill="#f2ac66"/>
            <path id="패스_3575" data-name="패스 3575" d="M540.418,710.1a3.174,3.174,0,0,0,2.228,1.434,2.625,2.625,0,0,0,2.859-2.251c1.671-9.943,8.667-51.743,12.228-77.218,1.284-9.2,2.124-16.267,2.1-18.941-.089-11.131-11.057-2.206-11.057-2.206s-.958,8.739-2.236,21.033c-2.922,28.107-7.508,74.795-6.123,78.149" fill="#f2ac66"/>
            <path id="패스_3576" data-name="패스 3576" d="M888.476,614.24c-.022,2.693.828,9.838,2.128,19.127a54.921,54.921,0,0,0,10.827-3.6c-1.1-10.529-1.893-17.73-1.893-17.73s-10.973-8.925-11.062,2.206" fill="#db904d"/>
            <path id="패스_3577" data-name="패스 3577" d="M821.138,614.723c-.022,2.771.88,10.254,2.243,19.937H834.55c-1.333-12.877-2.35-22.143-2.35-22.143s-10.973-8.925-11.062,2.206" fill="#db904d"/>
            <path id="패스_3578" data-name="패스 3578" d="M546.542,631.952c1.2.074,2.4.115,3.62.115h7.571c1.285-9.2,2.124-16.267,2.1-18.941-.089-11.131-11.058-2.206-11.058-2.206s-.958,8.739-2.235,21.032" fill="#db904d"/>
            <path id="패스_3579" data-name="패스 3579" d="M587.574,534.613v88.356H875.391a50.3,50.3,0,0,0,50.292-50.3v-99a27.381,27.381,0,0,0-27.406-27.412l-252.855.273-13.926.055c-8.659.034-16.367,6.205-19.275,14.362Z" fill="#d88b80"/>
            <path id="패스_3580" data-name="패스 3580" d="M512.426,534.816v37.851a50.3,50.3,0,0,0,50.291,50.3H850.534V534.613l-24.647-73.666A20.548,20.548,0,0,0,806.612,447.3l-174.463-.681a20.989,20.989,0,0,0-19.989,14.344l-18.483,55.371a26.831,26.831,0,0,1-25.371,18.335Z" fill="#d88b80"/>
            <path id="패스_3581" data-name="패스 3581" d="M888.962,535.121c10.5,0,18.248-6.762,23.027-20.1,4.4-12.267,4.619-25.739,4.619-28.315,0-1.688.074-3.568.152-5.558.435-11.108,1.031-26.321-10.5-33.88l-.556.848c11.051,7.245,10.468,22.126,10.042,32.992-.078,2-.152,3.89-.152,5.6,0,1.935-.3,47.4-26.632,47.4Z" fill="#fcf3f2"/>
            <path id="패스_3582" data-name="패스 3582" d="M838.211,622.97H810.737c17.027-2.127,20.753-9.58,22.883-19.695s1.477-45.007,5.852-53.758c8.294-16.6,16.935-12.286,47.063-14.7-9.744,1.058-14.612,4.748-19.586,14.7-4.375,8.751-3.725,43.647-5.856,53.758s-5.852,17.568-22.882,19.695" fill="#fcf3f2"/>
            <path id="패스_3583" data-name="패스 3583" d="M560.1,622.97c-17.03-2.127-20.756-9.58-22.882-19.695s-1.481-45.007-5.856-53.758c-4.973-9.949-9.193-13.642-18.936-14.7,30.127,2.411,38.12-1.9,46.413,14.7,4.375,8.751,3.726,43.647,5.852,53.758s5.856,17.568,22.883,19.695Z" fill="#fcf3f2"/>
            <rect id="사각형_4150" data-name="사각형 4150" width="263.186" height="1.014" transform="translate(569.365 589.28)" fill="#fcf3f2"/>
            <rect id="사각형_4151" data-name="사각형 4151" width="198.171" height="1.029" transform="translate(627.116 563.42)" fill="#fcf3f2"/>
            <path id="패스_3584" data-name="패스 3584" d="M690.176,509.99s2.208,6.98,1.349,19.254-2.636,38.636-10.823,44.348,2.238-44.709,2.238-44.709,1.762-14.8,3.273-16.245a18.823,18.823,0,0,1,3.963-2.648" fill="#df7a75"/>
            <path id="패스_3585" data-name="패스 3585" d="M690.176,509.99c-4.538,5.547-2.229,19.736-6.576,35.17s-1.449,26-2.9,28.432-13.868,1.421-27.736,3.452-38.293-2.234-38.293-2.234V559.985c0-14.825,5.8-42.038,10.325-49.552,0,0,12.316-2.128,33.657-2.609s31.521,2.166,31.521,2.166" fill="#e4937c"/>
            <path id="패스_3586" data-name="패스 3586" d="M679.789,574.572c-11.678-3.251-25.6-19.18-35.23-31.97-10.979-14.588-19.239-28.984-19.884-32.1l.648-.129c.641,3.1,9.224,17.838,19.768,31.848,7.83,10.4,22.773,28.361,34.878,31.731Z" fill="#df7a75"/>
            <path id="패스_3587" data-name="패스 3587" d="M683.59,546.459l-.642-.158a.254.254,0,0,0,0,.139c-.148-.368-2.27-2.751-4.726-5.511-8.188-9.2-23.429-26.313-24.072-32.956l.657-.062c.624,6.436,15.773,23.451,23.913,32.592,4.688,5.266,4.954,5.619,4.868,5.956" fill="#df7a75"/>
            <path id="패스_3588" data-name="패스 3588" d="M614.9,565.1l-.447-.477c8.933-8.049,47.225-45.916,51.625-56.977l.615.235c-4.437,11.156-42.838,49.15-51.793,57.219" fill="#df7a75"/>
            <path id="패스_3589" data-name="패스 3589" d="M640.229,578.048l-.218-.239c-.183-.2-18.371-20.225-24.564-31.272l.58-.313c5.788,10.326,22.166,28.593,24.258,30.91,9.817-8.78,47.065-61.82,47.444-62.359l.544.368c-.382.544-38.309,54.551-47.8,62.694Z" fill="#df7a75"/>
            <path id="패스_3590" data-name="패스 3590" d="M619.756,526.588l-.452-.473,19.018-17.484.453.474Z" fill="#df7a75"/>
            <path id="패스_3591" data-name="패스 3591" d="M630.147,518.021a1.523,1.523,0,1,1-1.522-1.494,1.508,1.508,0,0,1,1.522,1.494" fill="#d8c8c8"/>
            <path id="패스_3592" data-name="패스 3592" d="M661.221,518.021a1.523,1.523,0,1,1-1.522-1.494,1.509,1.509,0,0,1,1.522,1.494" fill="#d8c8c8"/>
            <path id="패스_3593" data-name="패스 3593" d="M675.181,535.261a1.523,1.523,0,1,1-1.522-1.494,1.508,1.508,0,0,1,1.522,1.494" fill="#d8c8c8"/>
            <path id="패스_3594" data-name="패스 3594" d="M643.152,538.249a1.523,1.523,0,1,1-1.522-1.494,1.509,1.509,0,0,1,1.522,1.494" fill="#d8c8c8"/>
            <path id="패스_3595" data-name="패스 3595" d="M624.488,556.983a1.523,1.523,0,1,1-1.522-1.494,1.509,1.509,0,0,1,1.522,1.494" fill="#d8c8c8"/>
            <path id="패스_3596" data-name="패스 3596" d="M658.838,557.47a1.523,1.523,0,1,1-1.522-1.494,1.509,1.509,0,0,1,1.522,1.494" fill="#d8c8c8"/>
            <path id="패스_3597" data-name="패스 3597" d="M642.05,577.145a1.523,1.523,0,1,1-1.522-1.494,1.509,1.509,0,0,1,1.522,1.494" fill="#d8c8c8"/>
            <path id="패스_3598" data-name="패스 3598" d="M652.485,535.011c1.488,1.177,2.392,3.151.574,11.1s-3.73,15.749-5.161,23.588c-2.847,15.594-6.191,15.457-6.191,15.457a7.867,7.867,0,0,1-5.89-8.271c.361-6.835,2.106-16.38,4.422-21.128s6.693-13.148,7.434-15.677,4.812-5.071,4.812-5.071" fill="#b6bf87"/>
            <path id="패스_3599" data-name="패스 3599" d="M587.542,532.36c-.978,6.75-6.786,17.208-12.629,28.513s-2.741,23.824-2.741,23.824.425,2.224,30.054,1.227,39.481-.765,39.481-.765-6.909-8.43-.613-22.263,11.391-27.884,11.391-27.884-9.668-4.578-25.138-2.894-39.8.242-39.8.242" fill="#c7d19b"/>
          </g>
        </g>
        <g id="그룹_19215" data-name="그룹 19215">
          <g id="그룹_19214" data-name="그룹 19214" clip-path="url(#clip-path-7)">
            <path id="패스_3600" data-name="패스 3600" d="M571.3,586.275l-.273-.591,11.6-5.164-8-10.248,11.984-5.332-8-10.248,11.984-5.332-8-10.248,11.983-5.333-7.75-9.923.525-.395,8.256,10.572-11.983,5.333,8,10.247-11.984,5.333,8,10.247-11.984,5.333,8,10.248Z" fill="#d8c8c8"/>
            <path id="패스_3601" data-name="패스 3601" d="M581.549,587.2l-.273-.591,11.6-5.164-8-10.247,11.983-5.333-8-10.248,11.983-5.333-8-10.247,11.984-5.333-7.75-9.924.524-.394,8.257,10.572-11.983,5.332,8,10.248-11.983,5.332,8,10.248-11.983,5.333,8,10.248Z" fill="#d8c8c8"/>
            <path id="패스_3602" data-name="패스 3602" d="M592.5,588.864l-.273-.591,11.6-5.164-8-10.247,11.983-5.333-8-10.248,11.984-5.333-8-10.247,11.983-5.333-7.75-9.923.524-.4,8.257,10.572-11.983,5.332,8,10.248-11.983,5.333,8,10.247-11.983,5.333,8,10.248Z" fill="#d8c8c8"/>
            <path id="패스_3603" data-name="패스 3603" d="M602.749,589.792l-.273-.591,11.6-5.164-8-10.247,11.983-5.333-8-10.248,11.984-5.333-8-10.247L626.02,537.3l-7.75-9.924.525-.394,8.256,10.572-11.983,5.332,8,10.248-11.983,5.332,8,10.248-11.983,5.333,8,10.247Z" fill="#d8c8c8"/>
            <path id="패스_3604" data-name="패스 3604" d="M613.707,591.515l-.273-.591,11.6-5.164-8-10.247,11.983-5.333-8-10.248L633,554.6l-8-10.247,11.983-5.333-7.75-9.923.524-.4,8.257,10.571-11.983,5.333,8,10.248-11.983,5.333,8,10.247-11.984,5.333,8,10.247Z" fill="#d8c8c8"/>
            <path id="패스_3605" data-name="패스 3605" d="M623.956,592.443l-.273-.591,11.6-5.164-8-10.247,11.984-5.333-8-10.248,11.984-5.332-8-10.248,11.983-5.333-7.75-9.923.525-.4,8.256,10.572-11.983,5.333,8,10.247-11.984,5.333,8,10.247-11.984,5.333,8,10.247Z" fill="#d8c8c8"/>
          </g>
        </g>
        <g id="그룹_19226" data-name="그룹 19226">
          <g id="그룹_19225" data-name="그룹 19225">
            <path id="패스_3607" data-name="패스 3607" d="M326.621,188.853a6.357,6.357,0,1,1-6.357-6.318,6.338,6.338,0,0,1,6.357,6.318" transform="translate(0 -76.044)" fill="#fcd163"/>
            <path id="패스_3608" data-name="패스 3608" d="M324.17,170.511h-7.811l-2.451,18.341h12.713Z" transform="translate(0 -76.044)" fill="#c2c9d8"/>
            <path id="패스_3609" data-name="패스 3609" d="M324.17,170.511h-7.813v-3.336a1.474,1.474,0,0,1,1.474-1.474H322.7a1.474,1.474,0,0,1,1.474,1.474Z" transform="translate(0 -76.044)" fill="#2c3f79"/>
            <path id="패스_3610" data-name="패스 3610" d="M320.264,154.705c-19.267,0-39.744-2.521-39.744-7.193s20.477-7.193,39.744-7.193,39.744,2.521,39.744,7.193-20.477,7.193-39.744,7.193m0-13.279a174.072,174.072,0,0,0-27.616,1.937c-8.129,1.377-11.013,3.1-11.013,4.149s2.884,2.772,11.013,4.149a174.072,174.072,0,0,0,27.616,1.937,174.073,174.073,0,0,0,27.616-1.937c8.129-1.377,11.014-3.1,11.014-4.149s-2.885-2.772-11.014-4.149a174.073,174.073,0,0,0-27.616-1.937" transform="translate(0 -76.044)" fill="#a86538"/>
            <path id="패스_3611" data-name="패스 3611" d="M324.569,173.473l.148,1.111a163.382,163.382,0,0,1,23.162,1.894c8.13,1.376,11.015,3.1,11.015,4.148s-2.885,2.772-11.015,4.149a158.48,158.48,0,0,1-21.553,1.858q-2.98.083-6.062.081c-2.05,0-4.074-.026-6.061-.081a158.451,158.451,0,0,1-21.553-1.858c-8.13-1.377-11.016-3.1-11.016-4.149s2.886-2.772,11.016-4.148a163.366,163.366,0,0,1,23.161-1.894l.149-1.111c-17.891.347-35.44,2.827-35.44,7.153,0,4.171,16.323,6.629,33.534,7.109,2.065.057,4.145.085,6.21.085s4.145-.028,6.21-.085c17.215-.48,33.535-2.938,33.535-7.109,0-4.326-17.546-6.806-35.44-7.153" transform="translate(0 -76.044)" fill="#a86538"/>
            <path id="패스_3612" data-name="패스 3612" d="M320.264,215.131c-11.887,0-24.52-2.2-24.52-6.277s12.633-6.278,24.52-6.278,24.52,2.2,24.52,6.278-12.633,6.277-24.52,6.277m0-11.448c-13.794,0-23.406,2.725-23.406,5.171s9.612,5.17,23.406,5.17,23.406-2.725,23.406-5.17-9.613-5.171-23.406-5.171" transform="translate(0 -76.044)" fill="#a86538"/>
            <path id="패스_3613" data-name="패스 3613" d="M295.155,209.464l-15.377-28.512v-33.79l24.208-41.2.937,1.179.984.677-23.529,40.046V180.3l15.069,27.94Z" transform="translate(0 -76.044)" fill="#c6865b"/>
            <path id="패스_3614" data-name="패스 3614" d="M345.373,209.464l-2.292-1.221,15.07-27.94V147.861l-23.5-40,1.895-1.9,24.209,41.2v33.79Z" transform="translate(0 -76.044)" fill="#c6865b"/>
            <path id="패스_3615" data-name="패스 3615" d="M306.153,105.3l-1.571,1.13,16.239-46.819-.1,50.43h-1.114l.1-43.82Z" transform="translate(0 -76.044)" fill="#30355e"/>
            <path id="패스_3616" data-name="패스 3616" d="M334.413,105.407,319.738,63.1l1.053-.361,15.156,43.694Z" transform="translate(0 -76.044)" fill="#30355e"/>
            <path id="패스_3617" data-name="패스 3617" d="M320.24,64.243c-2.063,0-2.5-.712-2.5-1.31s.433-1.309,2.5-1.309,2.5.712,2.5,1.309-.433,1.31-2.5,1.31" transform="translate(0 -76.044)" fill="#30355e"/>
            <path id="패스_3618" data-name="패스 3618" d="M301.486,213.324,286.6,184.685v-33.72l20.344-42.749,2.35,1.1L289.2,151.545v32.512l14.6,28.081Z" transform="translate(0 -76.044)" fill="#c6865b"/>
            <path id="패스_3619" data-name="패스 3619" d="M305.713,214.01l-9-27.714V152.785l13.3-43.644,2.488.749-13.187,43.278v32.721l8.879,27.327Z" transform="translate(0 -76.044)" fill="#c6865b"/>
            <path id="패스_3620" data-name="패스 3620" d="M311.4,214.451l-3.566-27.373.014-33.385,6.365-43.652,2.573.37-6.352,43.561v32.939l3.544,27.208Z" transform="translate(0 -76.044)" fill="#c6865b"/>
            <path id="패스_3621" data-name="패스 3621" d="M339.029,213.362l-2.31-1.186,14.6-28.081V151.583l-20.1-42.224,2.351-1.1L353.916,151v33.72Z" transform="translate(0 -76.044)" fill="#c6865b"/>
            <path id="패스_3622" data-name="패스 3622" d="M334.8,214.048l-2.475-.794,8.88-27.327V153.2L328.02,109.928l2.489-.749,13.3,43.644v33.511l-.063.193Z" transform="translate(0 -76.044)" fill="#c6865b"/>
            <path id="패스_3623" data-name="패스 3623" d="M329.117,214.488l-2.578-.332,3.544-27.208V154.01l-6.352-43.56,2.574-.371,6.378,43.744-.011,33.375Z" transform="translate(0 -76.044)" fill="#c6865b"/>
            <rect id="사각형_4153" data-name="사각형 4153" width="2.6" height="104.351" transform="translate(318.964 34.183)" fill="#c6865b"/>
            <path id="패스_3624" data-name="패스 3624" d="M320.739,102.446l0,1.1c9.063.051,14.823,1.83,14.823,3.06s-5.764,3.011-14.834,3.064h-.383c-.244,0-.49,0-.731,0-7.825-.081-13.308-1.455-14.563-2.588a.672.672,0,0,1-.275-.472c0-1.185,5.894-2.964,14.853-3.057l0-1.107c-6.463.081-15.971,1.237-15.971,4.164,0,3.038,10.236,4.17,16.683,4.17,6.567,0,16.331-1.11,16.331-4.17,0-3-9.378-4.123-15.933-4.164" transform="translate(0 -76.044)" fill="#a86538"/>
            <rect id="사각형_4154" data-name="사각형 4154" width="1.114" height="62.547" transform="translate(319.683 -76.044)" fill="#30355e"/>
            <path id="패스_3625" data-name="패스 3625" d="M176.184,533.292s-14.432,5.831-27.543-6.91h0a43.183,43.183,0,0,1-6.889-8.873A40.879,40.879,0,0,1,138.8,511.5c.133.011.266.025.4.035,15.081,1.222,22.648-6.319,22.866-6.54-12.233,5-25.323,0-25.323,0a64.785,64.785,0,0,1-1.637-10.772c15.355,2.47,19.084-3.713,19.084-3.713-6.429,1.033-14.723,0-19.284-3.089a113.455,113.455,0,0,1,1.527-16.973c9.214,9.007,19,8.18,19,8.18-7.844-4.23-17.592-15.079-17.426-16.345,0-.007,0-.011,0-.018.79-3.552,1.643-6.78,2.451-9.544,3.9,6.529,12.483,7.764,12.483,7.764-4.979-3.224-9.955-15.535-9.955-15.535a48.064,48.064,0,0,1,9.955-15.874s8.7,8.731,17.827,19.241c0,0-3.1,9.82-6.2,13.945a23.837,23.837,0,0,0,9.119-10.539c1.854,2.192,3.683,4.429,5.428,6.644,0,0-4.4,10.692-9.575,15.233.295-.161,9.8-5.448,12.556-11.331.984,1.326,1.921,2.638,2.795,3.915a74.417,74.417,0,0,1,6.844,12.727,35.352,35.352,0,0,1-20.948,12.632s17.244,1.141,23.143-6.854a62.227,62.227,0,0,1,3.342,16.932c.566,13.183-4.41,25.8-21.092,31.678" fill="#629b35"/>
            <g id="그룹_19218" data-name="그룹 19218" opacity="0.5">
              <g id="그룹_19217" data-name="그룹 19217">
                <g id="그룹_19216" data-name="그룹 19216" clip-path="url(#clip-path-8)">
                  <path id="패스_3626" data-name="패스 3626" d="M176.184,533.292s-14.432,5.831-27.543-6.91c12.43,4.16,20.513-4.951,17.476-17.475s-11.949-42.789-9.417-58.06c0,0,6.728,30.75,9.417,37s4.807,18.261,11.766,25.209c6.855,6.839,18.361-4.01,19.393-11.446.566,13.183-4.41,25.8-21.092,31.678" fill="#538726"/>
                </g>
              </g>
            </g>
            <path id="패스_3627" data-name="패스 3627" d="M177.359,559.806c-1.856-26.481-5.61-46.413-11.812-62.728-4.227-11.121-6.185-24.606-7.912-36.5-1.173-8.084-2.282-15.72-3.946-21.676l1.014-.28c1.683,6.021,2.8,13.689,3.975,21.807,1.719,11.844,3.668,25.269,7.855,36.283,6.239,16.413,10.013,36.44,11.877,63.025Z" fill="#457020"/>
            <path id="패스_3628" data-name="패스 3628" d="M160.485,592.437c-.326-.4-.664-.789-1-1.186-12.539-14.559-39.288-36.079-58.53-48.062a.128.128,0,0,0-.032-.018q-1.317-.822-2.581-1.574a.081.081,0,0,0-.02-.014l-.053-.031c-.608-.363-1.205-.716-1.791-1.054-19.333-11.173-24.341-28.4-24.341-28.4s2.315-2.53,8.02-3.647c4.2,5.161,10.152,13.976,12,24.466a93.64,93.64,0,0,0-5.263-24.972,56.7,56.7,0,0,1,17.416,3.668,102.263,102.263,0,0,1,6.66,33.933c.106-.562,3.452-18.7.956-31.079a171.286,171.286,0,0,1,15.843,7.084v0c.045.22,2.145,11.065.467,20.3,0,0,5.674-11.251,4.589-17.539,9.944,5.758,17.883,12.458,23.6,20.833,0,0-4.305,7.715-10.748,12.566,0,0,7.212-1.365,13-8.906a51.529,51.529,0,0,1,5.05,13.215c2.714,11.586,1.439,23.366-3.234,30.419" fill="#629b35"/>
            <g id="그룹_19221" data-name="그룹 19221" opacity="0.5">
              <g id="그룹_19220" data-name="그룹 19220">
                <g id="그룹_19219" data-name="그룹 19219" clip-path="url(#clip-path-9)">
                  <path id="패스_3629" data-name="패스 3629" d="M160.485,592.437c-.326-.4-.664-.789-1-1.186-12.539-14.559-39.288-36.079-58.53-48.062,13.473,7.645,27.433,7.355,36.282,15.284,9.438,8.459,22.371,10.353,26.486,3.545,2.714,11.586,1.439,23.366-3.234,30.419" fill="#538726"/>
                </g>
              </g>
            </g>
            <path id="패스_3630" data-name="패스 3630" d="M178.968,627.586a102.33,102.33,0,0,0-18.889-34.816c-.327-.394-.661-.786-1-1.179-12.844-14.91-42.81-39.048-62.871-50.64-19.295-11.15-24.531-28.54-24.582-28.714l1.012-.291c.05.171,5.185,17.171,24.1,28.1,20.141,11.639,50.237,35.883,63.142,50.865.341.4.679.794,1.009,1.192a103.4,103.4,0,0,1,19.095,35.216Z" fill="#457020"/>
            <path id="패스_3631" data-name="패스 3631" d="M243.788,523.158a182.265,182.265,0,0,0-16.637,21.136v0a60.891,60.891,0,0,1-11.808,3.088s2.8,1.707,8.711,1.822a77.918,77.918,0,0,0-4.761,9.23s-8.845,7.715-20.488,6.616c0,0,6.025,4.488,18.1.381-.864,3.018-1.738,5.9-2.647,8.629,0,0-9.629,2.4-15.447-.694a17.1,17.1,0,0,0,13.031,5.416c.27-.014.526-.028.765-.049a60.929,60.929,0,0,1-5.847,12c-2.727,4.128-5.909,7.144-9.806,8.759-10.057,4.174-14.555,0-14.555,0S170.2,600.463,164,592.44l0,0a17.731,17.731,0,0,1-3.472-9.945,36.914,36.914,0,0,0,17.9,5.663c-5.867-1.5-12.886-9.024-17.244-14.332a55.39,55.39,0,0,1,1.517-5.995,35.492,35.492,0,0,0,15.723,10.521c-4.027-2.062-9.972-10.078-12.753-18.533v0c.106-.251.211-.5.323-.754a53.611,53.611,0,0,1,11.423-16.827c5.853,6.69,15.72,7.883,16.088,7.925-5.484-3.039-9.02-8.473-10.99-12.395a56.693,56.693,0,0,1,5.5-3.776c6.243,11.959,17.409,13.4,17.409,13.4-6.45-4.334-10.144-11.63-11.914-16.373a78.939,78.939,0,0,1,16.475-5.684c1.1,4.781,2.658,10.12,4.431,12.126a63,63,0,0,1-1.748-12.706,108.1,108.1,0,0,1,31.124-1.591" fill="#629b35"/>
            <g id="그룹_19224" data-name="그룹 19224" opacity="0.5">
              <g id="그룹_19223" data-name="그룹 19223">
                <g id="그룹_19222" data-name="그룹 19222" clip-path="url(#clip-path-10)">
                  <path id="패스_3632" data-name="패스 3632" d="M206.754,590.737h0c-2.728,4.128-5.909,7.143-9.806,8.759-10.057,4.173-14.555,0-14.555,0S170.2,600.463,164,592.44c6.31,4.885,15.987,3.765,18.673-6.414s11.285-30.942,30.429-42.042c-.3.391-19.449,25.285-20.9,31.943-1.467,6.711.776,16.115,14.551,14.81" fill="#538726"/>
                </g>
              </g>
            </g>
            <path id="패스_3633" data-name="패스 3633" d="M179.225,624.366c-.019-.24-1.708-24.276,11.693-52.355,13.415-28.108,44.11-44.776,44.419-44.941l.5.922c-.3.164-30.7,16.675-43.966,44.467-13.283,27.831-11.613,51.59-11.6,51.826Z" fill="#457020"/>
            <path id="패스_3634" data-name="패스 3634" d="M188.168,731.979H159.474a8.071,8.071,0,0,1-7.829-6.257l-11.231-47.558a83.887,83.887,0,0,1-2.243-19.271V605.347H207.79v54.74a83.883,83.883,0,0,1-1.734,16.97l-10.009,48.438a8.076,8.076,0,0,1-7.879,6.484" fill="#ed6769"/>
            <path id="패스_3635" data-name="패스 3635" d="M177.2,746.24a314.525,314.525,0,0,1-62.709,0c-11.258-1.129-19.733-9.42-19.733-19.237v-4.344H196.93V727c0,9.817-8.476,18.108-19.734,19.237" fill="#dd6545"/>
            <path id="패스_3636" data-name="패스 3636" d="M198.326,719.85c0,2.237-1.227,4.377-3.467,6.348-7.552,6.664-26.659,11.393-49.03,11.393-20,0-37.38-3.782-46.244-9.338-3.99-2.5-6.253-5.365-6.253-8.4,0-9.8,23.5-17.737,52.5-17.737s52.5,7.941,52.5,17.737" fill="#f0ebe2"/>
            <path id="패스_3637" data-name="패스 3637" d="M103.144,727.147c-3.848-2.254-5.883-4.822-5.883-7.427,0-2.448,1.708-4.78,5.075-6.933l.362.426c-3.2,2.047-4.826,4.236-4.826,6.507,0,2.421,1.941,4.838,5.614,6.989Z" fill="#ced8a8"/>
            <path id="패스_3638" data-name="패스 3638" d="M145.829,735.2a147.349,147.349,0,0,1-15.147-.763l.073-.525a146.485,146.485,0,0,0,15.074.759c4.861,0,9.659-.228,14.258-.677l.068.526c-4.622.451-9.442.68-14.326.68" fill="#ced8a8"/>
            <path id="패스_3639" data-name="패스 3639" d="M183.978,729.333l-.258-.48a26.832,26.832,0,0,0,6.974-3.88c2.052-1.684,3.093-3.452,3.093-5.254,0-2.27-1.624-4.459-4.827-6.506l.363-.426c3.367,2.153,5.074,4.485,5.074,6.932,0,1.953-1.1,3.85-3.282,5.638a27.465,27.465,0,0,1-7.137,3.976" fill="#ced8a8"/>
            <path id="패스_3640" data-name="패스 3640" d="M189.14,718.735c0,1.705-1.012,3.336-2.86,4.838-6.231,5.078-21.994,8.682-40.45,8.682-16.5,0-30.839-2.881-38.152-7.116-3.292-1.908-5.159-4.088-5.159-6.4,0-7.465,19.39-13.517,43.311-13.517s43.31,6.052,43.31,13.517" fill="#b79f97"/>
            <path id="패스_3641" data-name="패스 3641" d="M180.643,722.5c0,3.493-3.266,6.325-7.3,6.325a7.548,7.548,0,0,1-6.31-3.151,5.632,5.632,0,0,1-.989-3.174c0-3.491,3.269-6.322,7.3-6.322a7.915,7.915,0,0,1,4.967,1.692,5.95,5.95,0,0,1,2.331,4.63" fill="#dd6545"/>
            <path id="패스_3642" data-name="패스 3642" d="M179.295,721.042c0,3.491-3.269,6.322-7.3,6.322a7.92,7.92,0,0,1-4.961-1.687,5.635,5.635,0,0,1-.989-3.174c0-3.491,3.268-6.323,7.3-6.323a7.913,7.913,0,0,1,4.967,1.693,5.636,5.636,0,0,1,.983,3.169" fill="#f2816b"/>
            <path id="패스_3643" data-name="패스 3643" d="M189.328,706.652c0,1.854-1.017,3.627-2.873,5.26-6.258,5.522-22.09,9.44-40.626,9.44-16.568,0-30.973-3.133-38.317-7.737-3.307-2.075-5.182-4.446-5.182-6.963,0-8.117,19.474-14.7,43.5-14.7s43.5,6.58,43.5,14.7" fill="#dd6545"/>
            <path id="패스_3644" data-name="패스 3644" d="M189.328,704.751c0,1.854-1.017,3.627-2.873,5.26-6.258,5.522-22.09,9.44-40.626,9.44-16.568,0-30.973-3.133-38.317-7.737-3.307-2.075-5.182-4.446-5.182-6.963,0-8.117,19.474-14.7,43.5-14.7s43.5,6.58,43.5,14.7" fill="#f0ebe2"/>
            <path id="패스_3645" data-name="패스 3645" d="M110.423,711.095c-3.2-2.007-4.889-4.295-4.889-6.616,0-2.179,1.419-4.257,4.217-6.175l.379.415c-2.644,1.813-3.985,3.75-3.985,5.76,0,2.144,1.6,4.284,4.636,6.188Z" fill="#ced8a8"/>
            <path id="패스_3646" data-name="패스 3646" d="M145.829,718.258a113.966,113.966,0,0,1-12.559-.678l.078-.525a116.07,116.07,0,0,0,24.287.073l.073.526a114.674,114.674,0,0,1-11.879.6" fill="#ced8a8"/>
            <path id="패스_3647" data-name="패스 3647" d="M177.469,713.041l-.272-.473a21.852,21.852,0,0,0,5.763-3.438c1.7-1.491,2.554-3.055,2.554-4.65,0-2.01-1.341-3.948-3.985-5.76l.379-.415c2.8,1.918,4.216,3.995,4.216,6.175,0,1.739-.918,3.428-2.728,5.021a22.447,22.447,0,0,1-5.927,3.54" fill="#ced8a8"/>
            <path id="패스_3648" data-name="패스 3648" d="M181.716,704.4a5.71,5.71,0,0,1-2.37,4.215c-5.163,4.424-18.224,7.564-33.517,7.564-13.669,0-25.553-2.511-31.612-6.2-2.728-1.663-4.275-3.562-4.275-5.579,0-6.5,16.066-11.776,35.887-11.776s35.887,5.272,35.887,11.776" fill="#b79f97"/>
            <path id="패스_3649" data-name="패스 3649" d="M135.666,708.039c0,3.6-3.364,6.515-7.518,6.515a7.776,7.776,0,0,1-6.5-3.245,5.805,5.805,0,0,1-1.019-3.27c0-3.6,3.368-6.512,7.518-6.512a8.157,8.157,0,0,1,5.117,1.743,6.128,6.128,0,0,1,2.4,4.769" fill="#476f9e"/>
            <path id="패스_3650" data-name="패스 3650" d="M134.277,706.534c0,3.6-3.367,6.512-7.518,6.512a8.158,8.158,0,0,1-5.11-1.738,5.8,5.8,0,0,1-1.019-3.27c0-3.6,3.367-6.512,7.518-6.512a8.147,8.147,0,0,1,5.116,1.744,5.8,5.8,0,0,1,1.013,3.264" fill="#609fe5"/>
            <path id="패스_3651" data-name="패스 3651" d="M175.073,693.6a5.454,5.454,0,0,1-1.931,3.875c-4.207,4.068-14.851,6.955-27.312,6.955-11.139,0-20.823-2.308-25.761-5.7-2.222-1.529-3.483-3.275-3.483-5.13,0-5.98,13.092-10.828,29.244-10.828s29.243,4.848,29.243,10.828" fill="#dd6545"/>
            <path id="패스_3652" data-name="패스 3652" d="M175.073,692.513a5.454,5.454,0,0,1-1.931,3.875c-4.207,4.068-14.851,6.955-27.312,6.955-11.139,0-20.823-2.308-25.761-5.7-2.222-1.529-3.483-3.275-3.483-5.13,0-5.98,13.092-10.828,29.244-10.828s29.243,4.848,29.243,10.828" fill="#f0ebe2"/>
            <path id="패스_3653" data-name="패스 3653" d="M172.671,695.086c-4.207,3.621-14.719,7.028-27.18,7.028-11.139,0-19.923-3.077-24.86-6.1,0-5.323,11.361-9.2,26.064-9.2,13.659,0,24.449,3.474,25.976,8.27" fill="#b79f97"/>
            <path id="패스_3654" data-name="패스 3654" d="M170.583,691.026c-2.868-3.169-9.371-5.623-17.395-6.565l.082-.524c8.178.96,14.829,3.488,17.794,6.763Z" fill="#ced8a8"/>
            <path id="패스_3655" data-name="패스 3655" d="M120.877,691.255l-.494-.311c2.726-3.243,9.094-5.816,17.035-6.884l.093.522c-7.783,1.047-14,3.542-16.634,6.673" fill="#ced8a8"/>
            <path id="패스_3656" data-name="패스 3656" d="M322.475,719.161A46.322,46.322,0,0,1,304.968,719c-4.674-1.109-7.8-3.189-8.26-5.972-.51-3.066,2.311-6.345,7.172-9.037a48.211,48.211,0,0,1,15.247-4.971c13.306-2.175,24.842.57,25.766,6.131s-9.112,11.835-22.418,14.01" fill="#f0ebe2"/>
            <path id="패스_3657" data-name="패스 3657" d="M314.751,699.907c6.161-7.387,14.223-10.857,16.352-9.348s-3.042,7.714-3.042,7.714Z" fill="#476f9e"/>
            <path id="패스_3658" data-name="패스 3658" d="M309.528,719.724c3.475,4.022,9.9,9,12.753,7.038,1.977-1.357-4.4-7.038-4.4-7.038Z" fill="#476f9e"/>
            <path id="패스_3659" data-name="패스 3659" d="M328.112,717.948c3.6,3.082,9.683,5.949,12.269,4.44s-5.272-5.655-6.135-6.523-6.134,2.083-6.134,2.083" fill="#476f9e"/>
            <path id="패스_3660" data-name="패스 3660" d="M340.9,700.677s13.321-9.967,18.036-7.7-6.844,6.637-3.8,9.8,8.521,2.112,8.518,5.129c-.005,4.226-20.4,1.981-20.4,1.981Z" fill="#476f9e"/>
            <path id="패스_3661" data-name="패스 3661" d="M304.968,719c-4.674-1.109-7.8-3.188-8.26-5.972-.51-3.065,2.311-6.345,7.172-9.037.273-.15,7.807,7.7,1.088,15.009" fill="#ed6769"/>
            <path id="패스_3662" data-name="패스 3662" d="M303.186,712.027a1.556,1.556,0,1,1-1.556-1.543,1.549,1.549,0,0,1,1.556,1.543" fill="#476f9e"/>
            <path id="패스_3663" data-name="패스 3663" d="M308.127,710.747l-.157-.527c.034-.01,3.355-1.014,4.059-3.706.9-3.448-1.245-4.7-1.267-4.714l.274-.478c.025.014,2.536,1.478,1.529,5.33-.783,3-4.289,4.052-4.438,4.1" fill="#476f9e"/>
            <path id="패스_3664" data-name="패스 3664" d="M312.685,719.481l-.313-.454c.015-.011,1.6-1.136,1.853-4.253.253-3.1-3.11-5.107-3.144-5.128l.281-.473c.151.089,3.7,2.207,3.417,5.645-.278,3.4-2.021,4.613-2.094,4.663" fill="#476f9e"/>
            <path id="패스_3665" data-name="패스 3665" d="M314.84,714.592l-.179-.52a4.623,4.623,0,0,0,2.953-4.956,4.839,4.839,0,0,0-1.642-3.44,3.629,3.629,0,0,0-2.727-.74l-.068-.546a4.181,4.181,0,0,1,3.141.857,5.369,5.369,0,0,1,1.848,3.816,5.246,5.246,0,0,1-3.326,5.529" fill="#476f9e"/>
            <path id="패스_3666" data-name="패스 3666" d="M318.991,707.479l-.374-.406a5.354,5.354,0,0,0,2-3.774,5.765,5.765,0,0,0-1.487-3.763l.4-.382a6.223,6.223,0,0,1,1.642,4.157,5.877,5.877,0,0,1-2.181,4.168" fill="#476f9e"/>
            <path id="패스_3667" data-name="패스 3667" d="M322.935,718.788l-.547-.09c.469-2.8-.059-4.947-1.569-6.376a5.328,5.328,0,0,0-2.39-1.309l.1-.54c.056.011,5.6,1.147,4.4,8.315" fill="#476f9e"/>
            <path id="패스_3668" data-name="패스 3668" d="M322.943,714.353l-.229-.5c.117-.054,2.9-1.381,2.643-5.868-.254-4.466-3.81-4.965-3.846-4.969l.07-.546c.04.005,4.05.566,4.329,5.484.276,4.879-2.835,6.339-2.967,6.4" fill="#476f9e"/>
            <path id="패스_3669" data-name="패스 3669" d="M326.375,707.507l-.3-.462c.023-.015,2.335-1.527,2.618-3.769.4-3.182-1.614-4.335-1.634-4.346l.269-.481c.1.054,2.363,1.349,1.915,4.9a6.641,6.641,0,0,1-2.867,4.162" fill="#476f9e"/>
            <path id="패스_3670" data-name="패스 3670" d="M331.154,716.323l-.394-.387a5.961,5.961,0,0,0,1.194-4.888c-.447-3.1-4.476-3.494-4.517-3.5l.049-.547c.045,0,4.507.433,5.017,3.968a6.383,6.383,0,0,1-1.349,5.352" fill="#476f9e"/>
            <path id="패스_3671" data-name="패스 3671" d="M333.006,711.283l-.333-.44c.039-.029,3.911-2.972,2.646-6.768-1.192-3.577-5.764-3.617-5.915-3.617h0l-.006-.549h0c.161,0,5.13.042,6.446,3.993,1.391,4.174-2.8,7.349-2.839,7.381" fill="#476f9e"/>
            <path id="패스_3672" data-name="패스 3672" d="M340.624,711.5c-.153-4.61-3.989-4.7-4.275-4.7h-.011l-1.289.013,1.169-.538c4.133-1.9,2.921-5.429,2.867-5.578l.522-.184a4.984,4.984,0,0,1-2.374,5.85c1.367.293,3.82,1.344,3.945,5.117Z" fill="#476f9e"/>
            <path id="패스_3673" data-name="패스 3673" d="M344.322,700.849l-.271-.48L354.7,694.45l.272.479Z" fill="#f0ebe2"/>
            <path id="패스_3674" data-name="패스 3674" d="M346.352,701.549l-.246-.492L357.4,695.51l.246.492Z" fill="#f0ebe2"/>
            <path id="패스_3675" data-name="패스 3675" d="M346.315,702.791l-.172-.522,7.26-2.347.172.522Z" fill="#f0ebe2"/>
            <path id="패스_3676" data-name="패스 3676" d="M346.717,703.919l-.115-.538,6.615-1.386.114.537Z" fill="#f0ebe2"/>
            <path id="패스_3677" data-name="패스 3677" d="M346.692,705.149l-.064-.546,7.744-.888.064.546Z" fill="#f0ebe2"/>
            <rect id="사각형_4158" data-name="사각형 4158" width="12.153" height="0.55" transform="translate(346.929 705.777)" fill="#f0ebe2"/>
            <path id="패스_3678" data-name="패스 3678" d="M361.078,708.708c-.757,0-2.549-.071-6.938-.294-3.582-.181-7.191-.381-7.227-.383l.031-.549c5.557.309,14,.745,14.494.676a.247.247,0,0,0-.114.054l.355.422c-.05.041-.089.074-.6.074" fill="#f0ebe2"/>
            <rect id="사각형_4159" data-name="사각형 4159" width="173.831" height="8.349" transform="translate(578.166 38.29)" fill="#f2ac66"/>
            <path id="패스_3679" data-name="패스 3679" d="M716.139,249.04l-.781-.786c.029-.03,3.208-3.419,1.353-12.6-2.034-10.072-2.96-16.579,3.356-23.143,2.668-2.772,5.672-3.843,8.46-3.013,2.96.88,5.323,3.8,6.02,7.432l-1.087.21c-.611-3.183-2.72-5.826-5.248-6.579-2.4-.715-4.946.224-7.348,2.72-5.933,6.165-5.031,12.435-3.068,22.153,1.986,9.836-1.507,13.46-1.657,13.609" transform="translate(-35 -205.682)" fill="#6da077"/>
            <path id="패스_3680" data-name="패스 3680" d="M783.887,245.614c-.13-.116-3.183-2.925-2.479-11.269.123-1.455.3-2.981.477-4.457.815-6.9,1.658-14.031-2.512-18.573-2.382-2.594-6.63-3.661-10.823-2.718a13.2,13.2,0,0,0-9.926,9.175l-1.057-.33a14.285,14.285,0,0,1,10.741-9.928c4.573-1.027,9.235.169,11.879,3.049,4.515,4.918,3.642,12.308,2.8,19.456-.174,1.466-.353,2.983-.474,4.419-.651,7.721,2.085,10.322,2.113,10.348Z" transform="translate(-35 -205.682)" fill="#6da077"/>
            <path id="패스_3681" data-name="패스 3681" d="M752.318,216.922c-3.533-7.554.033-17.882,5.459-21.727,11.509-8.154,16.669-13.3,17.78-28.329l1.1.082c-1.146,15.5-6.44,20.789-18.245,29.153-4.972,3.522-8.353,13.386-5.1,20.35Z" transform="translate(-35 -205.682)" fill="#6da077"/>
            <path id="패스_3682" data-name="패스 3682" d="M770.5,215.616v8.1a20.451,20.451,0,0,1-20.431,20.47h-5.223a20.452,20.452,0,0,1-20.43-20.47v-8.1Z" transform="translate(-35 -205.682)" fill="#ed6769"/>
            <path id="패스_3683" data-name="패스 3683" d="M770.5,222.22v1.491a20.45,20.45,0,0,1-20.431,20.469h-5.223a20.36,20.36,0,0,1-14.935-6.5c4.272,3.5,34.45,2.757,40.589-15.457" transform="translate(-35 -205.682)" fill="#ce4d53"/>
            <path id="패스_3684" data-name="패스 3684" d="M736.528,215.616c-.562,5.852,2.891,13.136,5.376,18.374a54.265,54.265,0,0,1,2.263,5.168,26.591,26.591,0,0,1,.987,5.023,129.393,129.393,0,0,1,.531,16.1l-1.106-.036a131.263,131.263,0,0,0-.545-16.076,25.077,25.077,0,0,0-.919-4.654,51.858,51.858,0,0,0-2.209-5.042c-2.531-5.331-6.028-12.71-5.492-18.852a10.557,10.557,0,0,1,2.049-5.589c2.715-3.573,5.05-3.817,6.532-3.391,2.953.849,5.031,5.009,5.732,8.98H748.6c-.677-3.6-2.518-7.223-4.911-7.913-1.674-.482-3.469.528-5.344,3a9.43,9.43,0,0,0-1.818,4.915" transform="translate(-35 -205.682)" fill="#6da077"/>
            <path id="패스_3685" data-name="패스 3685" d="M726.716,216.352c-.488,2.193-1.871,2.885-3.316,2.563s-2.405-1.538-1.917-3.731,3.949-5.41,3.949-5.41,1.771,4.385,1.284,6.578" transform="translate(-35 -205.682)" fill="#659b5a"/>
            <path id="패스_3686" data-name="패스 3686" d="M718.76,210.267c-2.122-.729-2.655-2.183-2.174-3.587s1.792-2.224,3.912-1.5,4.927,4.533,4.927,4.533-4.545,1.279-6.665.55" transform="translate(-35 -205.682)" fill="#659b5a"/>
            <path id="패스_3687" data-name="패스 3687" d="M722.014,221.586c.718,2.128-.106,3.439-1.509,3.914s-2.852-.065-3.57-2.193.576-6.677.576-6.677,3.785,2.828,4.5,4.956" transform="translate(-35 -205.682)" fill="#659b5a"/>
            <path id="패스_3688" data-name="패스 3688" d="M712.062,220.52c-2.19.479-3.4-.487-3.715-1.937s.381-2.833,2.571-3.312,6.558,1.314,6.558,1.314-3.224,3.455-5.414,3.935" transform="translate(-35 -205.682)" fill="#659b5a"/>
            <path id="패스_3689" data-name="패스 3689" d="M722.233,229.033c1.654,1.517,1.563,3.064.563,4.158s-2.529,1.322-4.183-.195-2.71-6.127-2.71-6.127,4.676.647,6.33,2.164" transform="translate(-35 -205.682)" fill="#659b5a"/>
            <path id="패스_3690" data-name="패스 3690" d="M713,232.91c-1.688,1.479-3.212,1.217-4.187.1s-1.03-2.666.658-4.144,6.377-2.021,6.377-2.021-1.16,4.586-2.848,6.065" transform="translate(-35 -205.682)" fill="#659b5a"/>
            <path id="패스_3691" data-name="패스 3691" d="M724.093,241.205c1.639,1.534,1.531,3.08.521,4.164s-2.543,1.3-4.182-.238-2.647-6.155-2.647-6.155,4.67.7,6.308,2.229" transform="translate(-35 -205.682)" fill="#659b5a"/>
            <path id="패스_3692" data-name="패스 3692" d="M714.823,244.988c-1.7,1.462-3.224,1.184-4.187.057s-1-2.676.7-4.138,6.4-1.953,6.4-1.953-1.207,4.572-2.91,6.034" transform="translate(-35 -205.682)" fill="#659b5a"/>
            <path id="패스_3693" data-name="패스 3693" d="M716.065,254.245c-1.017,2-2.529,2.328-3.849,1.655s-1.947-2.09-.93-4.092,5.169-4.254,5.169-4.254.627,4.689-.39,6.691" transform="translate(-35 -205.682)" fill="#659b5a"/>
            <path id="패스_3694" data-name="패스 3694" d="M767.139,201.938c1.122-1.944,2.65-2.188,3.932-1.445s1.832,2.191.708,4.136-5.389,3.969-5.389,3.969-.374-4.715.749-6.66" transform="translate(-35 -205.682)" fill="#659b5a"/>
            <path id="패스_3695" data-name="패스 3695" d="M772.9,210.138c1.8,1.334,1.876,2.882,1,4.076s-2.376,1.581-4.18.247-3.339-5.807-3.339-5.807,4.718.15,6.522,1.484" transform="translate(-35 -205.682)" fill="#659b5a"/>
            <path id="패스_3696" data-name="패스 3696" d="M785.339,207.459c2.236-.166,3.3.961,3.407,2.441s-.775,2.751-3.011,2.917-6.309-2.225-6.309-2.225,3.677-2.966,5.913-3.133" transform="translate(-35 -205.682)" fill="#659b5a"/>
            <path id="패스_3697" data-name="패스 3697" d="M781.826,216.85c-.083,2.246-1.319,3.177-2.8,3.122s-2.643-1.076-2.56-3.321,2.906-6.036,2.906-6.036,2.535,3.99,2.452,6.235" transform="translate(-35 -205.682)" fill="#659b5a"/>
            <path id="패스_3698" data-name="패스 3698" d="M789.657,223.3c1.885,1.216,2.055,2.756,1.253,4s-2.271,1.729-4.156.513-3.7-5.583-3.7-5.583,4.719-.151,6.6,1.066" transform="translate(-35 -205.682)" fill="#659b5a"/>
            <path id="패스_3699" data-name="패스 3699" d="M781.209,228.676c-1.415,1.742-2.962,1.741-4.11.8s-1.464-2.453-.049-4.2S783,222.219,783,222.219s-.374,4.716-1.789,6.457" transform="translate(-35 -205.682)" fill="#659b5a"/>
            <path id="패스_3700" data-name="패스 3700" d="M788.552,235.793c1.82,1.312,1.911,2.859,1.046,4.063s-2.357,1.611-4.177.3-3.409-5.767-3.409-5.767,4.72.093,6.54,1.4" transform="translate(-35 -205.682)" fill="#659b5a"/>
            <path id="패스_3701" data-name="패스 3701" d="M779.84,240.73c-1.5,1.667-3.047,1.586-4.146.591s-1.336-2.525.167-4.192,6.1-2.757,6.1-2.757-.615,4.691-2.118,6.358" transform="translate(-35 -205.682)" fill="#659b5a"/>
            <path id="패스_3702" data-name="패스 3702" d="M787.315,248.277c.62,2.159-.263,3.431-1.687,3.841s-2.846-.2-3.466-2.355.881-6.644.881-6.644,3.651,3,4.272,5.158" transform="translate(-35 -205.682)" fill="#659b5a"/>
            <path id="패스_3703" data-name="패스 3703" d="M747.178,265.61c-.2,2.238-1.485,3.1-2.96,2.969s-2.582-1.215-2.38-3.453,3.222-5.873,3.222-5.873,2.32,4.12,2.118,6.357" transform="translate(-35 -205.682)" fill="#659b5a"/>
            <path id="패스_3704" data-name="패스 3704" d="M743.213,214.812c-1.825,1.305-3.316.894-4.176-.314s-.764-2.754,1.061-4.059,6.544-1.381,6.544-1.381-1.6,4.449-3.429,5.754" transform="translate(-35 -205.682)" fill="#659b5a"/>
            <path id="패스_3705" data-name="패스 3705" d="M741.349,204.958c-1.092-1.962-.519-3.4.774-4.124s2.816-.456,3.909,1.506.644,6.672.644,6.672-4.234-2.092-5.327-4.054" transform="translate(-35 -205.682)" fill="#659b5a"/>
            <path id="패스_3706" data-name="패스 3706" d="M739.938,219c.243,2.233-.844,3.336-2.316,3.5s-2.771-.678-3.015-2.912,2-6.4,2-6.4,3.087,3.578,3.332,5.812" transform="translate(-35 -205.682)" fill="#659b5a"/>
            <path id="패스_3707" data-name="패스 3707" d="M730.448,215.813c-2.242-.005-3.214-1.209-3.211-2.693s.98-2.684,3.223-2.679,6.122,2.7,6.122,2.7-3.892,2.678-6.134,2.673" transform="translate(-35 -205.682)" fill="#659b5a"/>
            <path id="패스_3708" data-name="패스 3708" d="M744.208,225.636c1.958,1.1,2.224,2.621,1.5,3.917s-2.157,1.869-4.115.775-4.044-5.338-4.044-5.338,4.7-.449,6.657.646" transform="translate(-35 -205.682)" fill="#659b5a"/>
            <path id="패스_3709" data-name="패스 3709" d="M736.115,231.538c-1.3,1.828-2.846,1.924-4.051,1.062s-1.615-2.356-.312-4.184,5.742-3.436,5.742-3.436-.076,4.729-1.379,6.558" transform="translate(-35 -205.682)" fill="#659b5a"/>
            <path id="패스_3710" data-name="패스 3710" d="M749.392,238.813c1.782,1.364,1.828,2.913.93,4.092s-2.4,1.542-4.185.178-3.242-5.862-3.242-5.862,4.715.228,6.5,1.592" transform="translate(-35 -205.682)" fill="#659b5a"/>
            <path id="패스_3711" data-name="패스 3711" d="M740.542,243.5c-1.55,1.623-3.092,1.5-4.161.472s-1.263-2.563.287-4.186,6.173-2.58,6.173-2.58-.749,4.671-2.3,6.294" transform="translate(-35 -205.682)" fill="#659b5a"/>
            <path id="패스_3712" data-name="패스 3712" d="M751.661,253.148c1.782,1.364,1.828,2.913.93,4.092s-2.4,1.542-4.184.178-3.243-5.862-3.243-5.862,4.716.229,6.5,1.592" transform="translate(-35 -205.682)" fill="#659b5a"/>
            <path id="패스_3713" data-name="패스 3713" d="M742.81,257.833c-1.55,1.623-3.091,1.5-4.161.472s-1.263-2.563.287-4.186,6.174-2.58,6.174-2.58-.75,4.67-2.3,6.294" transform="translate(-35 -205.682)" fill="#659b5a"/>
            <path id="패스_3714" data-name="패스 3714" d="M748.031,199.563c-.586-2.169.318-3.426,1.747-3.814s2.842.241,3.428,2.409-.985,6.629-.985,6.629-3.6-3.055-4.19-5.224" transform="translate(-35 -205.682)" fill="#659b5a"/>
            <path id="패스_3715" data-name="패스 3715" d="M757.9,201.241c2.216-.344,3.363.7,3.589,2.162s-.554,2.8-2.769,3.148-6.466-1.717-6.466-1.717,3.43-3.25,5.646-3.593" transform="translate(-35 -205.682)" fill="#659b5a"/>
            <path id="패스_3716" data-name="패스 3716" d="M756.267,188.829c-.175-2.24.946-3.308,2.422-3.423s2.749.764,2.924,3-2.195,6.331-2.195,6.331-2.976-3.672-3.151-5.912" transform="translate(-35 -205.682)" fill="#659b5a"/>
            <path id="패스_3717" data-name="패스 3717" d="M765.653,192.311c2.241.074,3.175,1.309,3.127,2.792s-1.063,2.652-3.3,2.578-6.036-2.888-6.036-2.888,3.972-2.556,6.213-2.482" transform="translate(-35 -205.682)" fill="#659b5a"/>
            <path id="패스_3718" data-name="패스 3718" d="M765.683,180.885c-.175-2.24.946-3.308,2.422-3.423s2.749.764,2.924,3-2.2,6.331-2.2,6.331-2.976-3.672-3.151-5.912" transform="translate(-35 -205.682)" fill="#659b5a"/>
            <path id="패스_3719" data-name="패스 3719" d="M775.069,184.367c2.24.075,3.175,1.31,3.127,2.793s-1.063,2.652-3.3,2.578-6.036-2.888-6.036-2.888,3.972-2.556,6.213-2.483" transform="translate(-35 -205.682)" fill="#659b5a"/>
            <path id="패스_3720" data-name="패스 3720" d="M768.7,172.764c-1.57-1.6-1.4-3.144-.339-4.182s2.6-1.185,4.166.419,2.378,6.265,2.378,6.265-4.635-.9-6.205-2.5" transform="translate(-35 -205.682)" fill="#659b5a"/>
            <path id="패스_3721" data-name="패스 3721" d="M778.125,169.389c1.765-1.386,3.273-1.042,4.186.126s.886,2.717-.879,4.1-6.477,1.673-6.477,1.673,1.4-4.516,3.17-5.9" transform="translate(-35 -205.682)" fill="#659b5a"/>
            <path id="패스_3722" data-name="패스 3722" d="M773.428,161.3c-.017-2.247,1.176-3.233,2.656-3.245s2.688.957,2.706,3.2-2.633,6.161-2.633,6.161-2.712-3.872-2.729-6.119" transform="translate(-35 -205.682)" fill="#659b5a"/>
            <rect id="사각형_4160" data-name="사각형 4160" width="9.058" height="68.547" transform="matrix(0.989, -0.145, 0.145, 0.989, 602.851, -29.782)" fill="#ed9d56"/>
            <rect id="사각형_4161" data-name="사각형 4161" width="9.646" height="67.071" transform="translate(612.288 -27.153) rotate(-12.842)" fill="#7d9e90"/>
            <rect id="사각형_4162" data-name="사각형 4162" width="9.648" height="1.05" transform="translate(625.81 32.235) rotate(-11.763)" fill="#e2ba6e"/>
            <path id="패스_3723" data-name="패스 3723" d="M660.382,236.09l-.225-1.026,9.42-2.079.225,1.025Z" transform="translate(-35 -205.682)" fill="#e2ba6e"/>
            <rect id="사각형_4163" data-name="사각형 4163" width="9.646" height="1.05" transform="translate(613.255 -23.047) rotate(-12.372)" fill="#e2ba6e"/>
            <rect id="사각형_4164" data-name="사각형 4164" width="9.647" height="1.05" transform="translate(613.945 -20.028) rotate(-11.878)" fill="#e2ba6e"/>
            <rect id="사각형_4165" data-name="사각형 4165" width="6.406" height="53.233" transform="matrix(0.975, -0.222, 0.222, 0.975, 625.323, -13.414)" fill="#95b1d6"/>
            <rect id="사각형_4166" data-name="사각형 4166" width="6.406" height="49.966" transform="matrix(0.975, -0.222, 0.222, 0.975, 632.462, -10.283)" fill="#f29ca0"/>
            <rect id="사각형_4167" data-name="사각형 4167" width="18.871" height="29.571" transform="translate(589.12 8.719)" fill="#db904d"/>
            <path id="패스_3724" data-name="패스 3724" d="M633.556,197.7l-9.436,16.7h18.871Z" transform="translate(-35 -205.682)" fill="#db904d"/>
          </g>
        </g>
      </g>
    </g>
  </g>
</svg>
